<svg width="42" height="43" viewBox="0 0 42 43" fill="none" xmlns="http://www.w3.org/2000/svg">
<mask id="mask0_4039_369" style="mask-type:luminance" maskUnits="userSpaceOnUse" x="2" y="2" width="38" height="39">
<path d="M40 2.01465H2V40.0146H40V2.01465Z" fill="white"/>
<path d="M22.8555 21.0151C22.8555 22.0399 22.0247 22.8706 21 22.8706C19.9753 22.8706 19.1445 22.0399 19.1445 21.0151C19.1445 19.9904 19.9753 19.1597 21 19.1597C22.0247 19.1597 22.8555 19.9904 22.8555 21.0151Z" fill="white"/>
<path d="M30.2773 21.0151C30.2773 22.0399 29.4466 22.8706 28.4219 22.8706C27.3971 22.8706 26.5664 22.0399 26.5664 21.0151C26.5664 19.9904 27.3971 19.1597 28.4219 19.1597C29.4466 19.1597 30.2773 19.9904 30.2773 21.0151Z" fill="white"/>
<path d="M15.4336 21.0151C15.4336 22.0399 14.6029 22.8706 13.5781 22.8706C12.5534 22.8706 11.7227 22.0399 11.7227 21.0151C11.7227 19.9904 12.5534 19.1597 13.5781 19.1597C14.6029 19.1597 15.4336 19.9904 15.4336 21.0151Z" fill="white"/>
</mask>
<g mask="url(#mask0_4039_369)">
<mask id="mask1_4039_369" style="mask-type:luminance" maskUnits="userSpaceOnUse" x="2" y="2" width="38" height="39">
<path d="M2 2.01514H40V40.0151H2V2.01514Z" fill="white"/>
</mask>
<g mask="url(#mask1_4039_369)">
<path d="M21 3.49902C11.3264 3.49902 3.48438 11.3411 3.48438 21.0146C3.48438 24.4202 4.45731 27.598 6.13888 30.2873L3.48438 38.5303L11.7273 35.8758C14.4166 37.5573 17.5945 38.5303 21 38.5303C30.6736 38.5303 38.5156 30.6882 38.5156 21.0146C38.5156 11.3411 30.6736 3.49902 21 3.49902Z" stroke="url(#paint0_linear_4039_369)" stroke-width="2.96875" stroke-miterlimit="10" stroke-linecap="round" stroke-linejoin="round"/>
<path d="M22.8554 21.0151C22.8554 22.0399 22.0247 22.8706 20.9999 22.8706C19.9752 22.8706 19.1445 22.0399 19.1445 21.0151C19.1445 19.9904 19.9752 19.1597 20.9999 19.1597C22.0247 19.1597 22.8554 19.9904 22.8554 21.0151Z" fill="url(#paint1_linear_4039_369)"/>
<path d="M30.2773 21.0151C30.2773 22.0399 29.4466 22.8706 28.4219 22.8706C27.3971 22.8706 26.5664 22.0399 26.5664 21.0151C26.5664 19.9904 27.3971 19.1597 28.4219 19.1597C29.4466 19.1597 30.2773 19.9904 30.2773 21.0151Z" fill="url(#paint2_linear_4039_369)"/>
<path d="M15.4336 21.0151C15.4336 22.0399 14.6029 22.8706 13.5781 22.8706C12.5534 22.8706 11.7227 22.0399 11.7227 21.0151C11.7227 19.9904 12.5534 19.1597 13.5781 19.1597C14.6029 19.1597 15.4336 19.9904 15.4336 21.0151Z" fill="url(#paint3_linear_4039_369)"/>
</g>
</g>
<defs>
<linearGradient id="paint0_linear_4039_369" x1="27.4099" y1="31.8194" x2="27.4099" y2="22.9882" gradientUnits="userSpaceOnUse">
<stop stop-color="#612295"/>
<stop offset="1" stop-color="#E54324"/>
</linearGradient>
<linearGradient id="paint1_linear_4039_369" x1="21.679" y1="22.1597" x2="21.679" y2="21.2242" gradientUnits="userSpaceOnUse">
<stop stop-color="#612295"/>
<stop offset="1" stop-color="#E54324"/>
</linearGradient>
<linearGradient id="paint2_linear_4039_369" x1="29.1009" y1="22.1597" x2="29.1009" y2="21.2242" gradientUnits="userSpaceOnUse">
<stop stop-color="#612295"/>
<stop offset="1" stop-color="#E54324"/>
</linearGradient>
<linearGradient id="paint3_linear_4039_369" x1="14.2571" y1="22.1597" x2="14.2571" y2="21.2242" gradientUnits="userSpaceOnUse">
<stop stop-color="#612295"/>
<stop offset="1" stop-color="#E54324"/>
</linearGradient>
</defs>
</svg>
