<svg width="42" height="43" viewBox="0 0 42 43" fill="none" xmlns="http://www.w3.org/2000/svg">
<g clip-path="url(#clip0_4039_434)">
<path d="M33.6428 28.4408L32.6903 29.3789L32.6903 29.3789L33.6428 28.4408ZM9.15712 28.4408L10.1097 29.3789L10.1097 29.3789L9.15712 28.4408ZM21.4003 0.677837C16.3112 0.677837 12.1731 4.81596 12.1731 9.90501H14.847C14.847 6.29272 17.788 3.35175 21.4003 3.35175V0.677837ZM30.6274 9.90501C30.6274 4.81596 26.4893 0.677837 21.4003 0.677837V3.35175C25.0125 3.35175 27.9535 6.29272 27.9535 9.90501H30.6274ZM21.4003 19.1322C26.4893 19.1322 30.6274 14.9941 30.6274 9.90501H27.9535C27.9535 13.5173 25.0125 16.4583 21.4003 16.4583V19.1322ZM12.1731 9.90501C12.1731 14.9941 16.3112 19.1322 21.4003 19.1322V16.4583C17.788 16.4583 14.847 13.5173 14.847 9.90501H12.1731ZM34.5954 27.5027C31.6537 24.5158 27.7407 22.8621 23.5866 22.8621V25.536C27.0143 25.536 30.244 26.895 32.6903 29.3789L34.5954 27.5027ZM39.1369 38.5581C39.1369 34.4028 37.5211 30.4734 34.5954 27.5027L32.6903 29.3789C35.126 31.8521 36.463 35.1087 36.463 38.5581H39.1369ZM36.7066 40.9884C38.0488 40.9884 39.1369 39.9003 39.1369 38.5581H36.463C36.463 38.4235 36.5721 38.3145 36.7066 38.3145V40.9884ZM6.09331 40.9884H36.7066V38.3145H6.09331V40.9884ZM3.66302 38.5581C3.66302 39.9003 4.75112 40.9884 6.09331 40.9884V38.3145C6.22787 38.3145 6.33693 38.4235 6.33693 38.5581H3.66302ZM8.20457 27.5027C5.27878 30.4734 3.66302 34.4028 3.66302 38.5581H6.33693C6.33693 35.1087 7.6739 31.8521 10.1097 29.3789L8.20457 27.5027ZM19.2133 22.8621C15.0593 22.8621 11.1462 24.5158 8.20457 27.5027L10.1097 29.3789C12.556 26.895 15.7857 25.536 19.2133 25.536V22.8621ZM23.5866 22.8621H19.2133V25.536H23.5866V22.8621Z" fill="url(#paint0_linear_4039_434)"/>
</g>
<defs>
<linearGradient id="paint0_linear_4039_434" x1="27.4016" y1="9.22464" x2="27.4016" y2="18.7127" gradientUnits="userSpaceOnUse">
<stop stop-color="#612295"/>
<stop offset="1" stop-color="#E54324"/>
</linearGradient>
<clipPath id="clip0_4039_434">
<rect width="42" height="42" fill="white" transform="translate(0 0.0146484)"/>
</clipPath>
</defs>
</svg>
