<svg width="42" height="43" viewBox="0 0 42 43" fill="none" xmlns="http://www.w3.org/2000/svg">
<g clip-path="url(#clip0_4039_419)">
<path d="M34.9428 16.6298L12.499 2.79501C10.8753 1.79535 8.91209 1.75379 7.24744 2.68383C5.58278 3.61371 4.58899 5.30746 4.58899 7.21422V34.7577C4.58899 37.6409 6.91204 39.999 9.76724 40.0146C9.77504 40.0146 9.78283 40.0147 9.79047 40.0147C10.6827 40.0146 11.6125 39.7349 12.481 39.205C13.1796 38.7788 13.4004 37.8669 12.9742 37.1684C12.5479 36.4697 11.6359 36.2489 10.9375 36.6752C10.5313 36.9229 10.1346 37.0511 9.7832 37.051C8.70591 37.0452 7.55248 36.1223 7.55248 34.7578V7.2143C7.55248 6.39633 7.97879 5.66995 8.69278 5.27102C9.40684 4.8721 10.2488 4.88991 10.9445 5.31823L33.3884 19.153C34.0629 19.5683 34.449 20.2609 34.4473 21.0531C34.4457 21.8452 34.0569 22.5362 33.3786 22.9501L17.1516 32.8856C16.4536 33.313 16.2342 34.2252 16.6616 34.9231C17.0889 35.6211 18.0011 35.8404 18.699 35.4131L34.9241 25.4787C36.4776 24.531 37.4072 22.8789 37.411 21.059C37.4147 19.2393 36.4917 17.5833 34.9428 16.6298Z" fill="url(#paint0_linear_4039_419)"/>
</g>
<defs>
<linearGradient id="paint0_linear_4039_419" x1="27.0056" y1="9.29425" x2="27.0056" y2="18.8739" gradientUnits="userSpaceOnUse">
<stop stop-color="#612295"/>
<stop offset="1" stop-color="#E54324"/>
</linearGradient>
<clipPath id="clip0_4039_419">
<rect width="38" height="38" fill="white" transform="translate(2 2.01465)"/>
</clipPath>
</defs>
</svg>
