<svg width="42" height="43" viewBox="0 0 42 43" fill="none" xmlns="http://www.w3.org/2000/svg">
<g clip-path="url(#clip0_2063_1976)">
<path d="M10.8762 35.6526C8.55076 36.9878 5.92953 37.4667 4.37735 37.6386C4.54919 36.0864 5.02808 33.4652 6.36194 31.1383C6.71125 30.5312 6.50138 29.7566 5.89431 29.4072C5.28161 29.0565 4.51116 29.2692 4.16325 29.8763C1.77442 34.0427 1.74625 38.8006 1.74625 39.002C1.74625 39.702 2.31388 40.2697 3.01391 40.2697C3.21533 40.2697 7.97327 40.2415 12.1396 37.8527C12.7467 37.5034 12.9566 36.7301 12.6073 36.1216C12.2608 35.5145 11.4875 35.3033 10.8762 35.6526Z" fill="url(#paint0_linear_2063_1976)"/>
<path d="M42.0001 3.09224C42.0155 2.25981 41.7015 1.4795 41.1155 0.894967C40.531 0.310435 39.6859 0.021691 38.9225 0.0146484C35.4125 0.0808484 25.9445 1.08793 16.9863 9.12911C15.3891 8.50796 12.9819 7.58539 11.1551 7.82061C8.46766 8.16569 4.49707 11.8222 0.608175 15.7238C0.09266 16.2407 -0.112982 16.9731 0.0602643 17.683C0.232103 18.3957 0.753251 18.9549 1.45187 19.1788L7.63523 21.1648C7.16901 22.0156 6.70984 22.886 6.26616 23.8044C5.70839 24.9594 5.94502 26.3467 6.85492 27.2538L14.7609 35.1598C15.3412 35.7415 16.1187 36.0486 16.9032 36.0486C17.3469 36.0486 17.7948 35.9514 18.2117 35.7499C19.1301 35.3063 20.0005 34.8471 20.8485 34.3823L22.8359 40.5642C23.0598 41.2629 23.619 41.784 24.3331 41.9572C24.4979 41.9967 24.6641 42.0164 24.8303 42.0164C25.3726 42.0164 25.8952 41.8037 26.2924 41.4079C30.1939 37.519 33.8504 33.5499 34.1941 30.8638C34.4321 29.0201 33.5067 26.627 32.8856 25.0298C40.9254 16.0717 41.9339 6.60366 42.0001 3.09224ZM2.92658 16.9914C4.99005 14.9364 9.47193 10.594 11.4776 10.3362C12.3721 10.2221 13.7763 10.6461 14.9623 11.0757C12.8678 13.2406 10.834 15.835 8.9381 18.9211L2.92658 16.9914ZM17.1089 33.4668C16.93 33.5541 16.7004 33.5146 16.5539 33.3682L8.64654 25.4608C8.50146 25.3157 8.46062 25.0875 8.54935 24.9058C18.3962 4.5092 34.3237 2.6387 38.9718 2.55137H38.983C39.1506 2.55137 39.2605 2.62603 39.3253 2.69082C39.3788 2.74434 39.4704 2.86265 39.4676 3.04576C39.3774 7.69384 37.5055 23.6213 17.1089 33.4668ZM31.6799 30.5399C31.4221 32.5442 27.0797 37.0275 25.0247 39.0895L23.0922 33.0794C26.1811 31.1836 28.7756 29.1483 30.9404 27.0538C31.3714 28.2384 31.7954 29.6398 31.6799 30.5399Z" fill="url(#paint1_linear_2063_1976)"/>
<path d="M32.4489 17.0915C34.5223 15.0168 34.5223 11.642 32.4489 9.56725C30.4376 7.55872 26.9332 7.55872 24.9247 9.56725C23.9204 10.5715 23.3669 11.9082 23.3669 13.3294C23.3669 14.7506 23.9218 16.0872 24.9247 17.0915C25.9289 18.0958 27.2656 18.6493 28.6868 18.6493C30.108 18.6493 31.4433 18.0958 32.4489 17.0915ZM30.6545 15.2985C29.6023 16.352 27.7671 16.352 26.7177 15.2985C26.1909 14.7731 25.9008 14.0731 25.9008 13.3294C25.9008 12.5857 26.1909 11.8871 26.7177 11.3603C27.2431 10.8349 27.9417 10.5448 28.6854 10.5448C29.4277 10.5448 30.1277 10.8349 30.6531 11.3603C31.7405 12.4462 31.7405 14.2125 30.6545 15.2985Z" fill="url(#paint2_linear_2063_1976)"/>
</g>
<defs>
<linearGradient id="paint0_linear_2063_1976" x1="28.6854" y1="8.06085" x2="28.6854" y2="18.6493" gradientUnits="userSpaceOnUse">
<stop stop-color="#612295"/>
<stop offset="1" stop-color="#E54324"/>
</linearGradient>
<linearGradient id="paint1_linear_2063_1976" x1="28.6854" y1="8.06085" x2="28.6854" y2="18.6493" gradientUnits="userSpaceOnUse">
<stop stop-color="#612295"/>
<stop offset="1" stop-color="#E54324"/>
</linearGradient>
<linearGradient id="paint2_linear_2063_1976" x1="28.6854" y1="8.06085" x2="28.6854" y2="18.6493" gradientUnits="userSpaceOnUse">
<stop stop-color="#612295"/>
<stop offset="1" stop-color="#E54324"/>
</linearGradient>
<clipPath id="clip0_2063_1976">
<rect width="42" height="42" fill="white" transform="translate(0 0.0146484)"/>
</clipPath>
</defs>
</svg>
