<svg width="41" height="43" viewBox="0 0 41 43" fill="none" xmlns="http://www.w3.org/2000/svg">
<path opacity="0.15" d="M37.5815 3.90212H35.5964V3.76353C35.5666 2.99555 35.2406 2.26896 34.6867 1.73615C34.1329 1.20334 33.3942 0.905726 32.6256 0.905726C31.8571 0.905726 31.1184 1.20334 30.5645 1.73615C30.0106 2.26896 29.6846 2.99555 29.6548 3.76353V3.90212H26.9723V3.76353C26.9723 3.37331 26.8954 2.98692 26.7459 2.62646C26.5965 2.266 26.3774 1.93855 26.1013 1.66283C25.8251 1.38711 25.4974 1.16853 25.1367 1.01961C24.776 0.870687 24.3895 0.794338 23.9993 0.794925C23.2119 0.794925 22.4569 1.10769 21.9002 1.66441C21.3435 2.22113 21.0307 2.97621 21.0307 3.76353V3.90212H18.3482V3.76353C18.3482 2.97621 18.0355 2.22113 17.4787 1.66441C16.922 1.10769 16.1669 0.794925 15.3796 0.794925C14.5923 0.794925 13.8372 1.10769 13.2805 1.66441C12.7238 2.22113 12.411 2.97621 12.411 3.76353V3.90212H10.4215C9.72865 3.9033 9.06458 4.17937 8.57507 4.66973C8.08555 5.16008 7.81061 5.82465 7.81061 6.51752V33.2617C7.81061 33.9546 8.08555 34.6191 8.57507 35.1095C9.06458 35.5998 9.72865 35.8759 10.4215 35.8771H37.6038C38.2975 35.8771 38.9627 35.6015 39.4532 35.1111C39.9437 34.6206 40.2192 33.9553 40.2192 33.2617V6.51752C40.2192 6.17217 40.1509 5.83024 40.018 5.51146C39.8852 5.19268 39.6905 4.90336 39.4453 4.6602C39.2001 4.41705 38.9091 4.22487 38.5892 4.09475C38.2693 3.96464 37.9268 3.89917 37.5815 3.90212Z" fill="#8C8D92"/>
<path d="M32.7575 8.05128H30.5847V7.89927C30.5847 7.03962 30.2432 6.21518 29.6354 5.60732C29.0275 4.99946 28.2031 4.65796 27.3434 4.65796C26.4838 4.65796 25.6593 4.99946 25.0514 5.60732C24.4436 6.21518 24.1021 7.03962 24.1021 7.89927V8.05128H21.1603V7.89927C21.1603 7.03962 20.8188 6.21518 20.211 5.60732C19.6031 4.99946 18.7787 4.65796 17.919 4.65796C17.4932 4.65737 17.0714 4.74081 16.6779 4.90349C16.2844 5.06618 15.9268 5.30491 15.6257 5.60601C15.3246 5.90711 15.0859 6.26467 14.9232 6.65819C14.7605 7.05171 14.6771 7.47345 14.6777 7.89927V8.05128H11.7359V7.89927C11.7047 7.05987 11.3494 6.26523 10.7445 5.6824C10.1396 5.09957 9.33235 4.77393 8.49237 4.77393C7.65239 4.77393 6.84513 5.09957 6.24025 5.6824C5.63538 6.26523 5.28002 7.05987 5.24885 7.89927V8.05128H3.08051C2.32401 8.05128 1.5985 8.35179 1.06358 8.88671C0.528662 9.42163 0.228149 10.1471 0.228149 10.9036V40.1023C0.228149 40.8587 0.528662 41.5843 1.06358 42.1192C1.5985 42.6541 2.32401 42.9546 3.08051 42.9546H32.7575C33.514 42.9546 34.2395 42.6541 34.7744 42.1192C35.3093 41.5843 35.6099 40.8587 35.6099 40.1023V10.9036C35.6099 10.1471 35.3093 9.42163 34.7744 8.88671C34.2395 8.35179 33.514 8.05128 32.7575 8.05128Z" fill="url(#paint0_linear_2007_1272)"/>
<path opacity="0.35" d="M32.7575 8.05128H30.5847V7.89927C30.5847 7.03962 30.2432 6.21518 29.6354 5.60732C29.0275 4.99946 28.2031 4.65796 27.3434 4.65796C26.4838 4.65796 25.6593 4.99946 25.0514 5.60732C24.4436 6.21518 24.1021 7.03962 24.1021 7.89927V8.05128H21.1603V7.89927C21.1603 7.03962 20.8188 6.21518 20.211 5.60732C19.6031 4.99946 18.7787 4.65796 17.919 4.65796C17.4932 4.65737 17.0714 4.74081 16.6779 4.90349C16.2844 5.06618 15.9268 5.30491 15.6257 5.60601C15.3246 5.90711 15.0859 6.26467 14.9232 6.65819C14.7605 7.05171 14.6771 7.47345 14.6777 7.89927V8.05128H11.7359V7.89927C11.7047 7.05987 11.3494 6.26523 10.7445 5.6824C10.1396 5.09957 9.33235 4.77393 8.49237 4.77393C7.65239 4.77393 6.84513 5.09957 6.24025 5.6824C5.63538 6.26523 5.28002 7.05987 5.24885 7.89927V8.05128H3.08051C2.32401 8.05128 1.5985 8.35179 1.06358 8.88671C0.528662 9.42163 0.228149 10.1471 0.228149 10.9036V40.1023C0.228149 40.8587 0.528662 41.5843 1.06358 42.1192C1.5985 42.6541 2.32401 42.9546 3.08051 42.9546H32.7575C33.514 42.9546 34.2395 42.6541 34.7744 42.1192C35.3093 41.5843 35.6099 40.8587 35.6099 40.1023V10.9036C35.6099 10.1471 35.3093 9.42163 34.7744 8.88671C34.2395 8.35179 33.514 8.05128 32.7575 8.05128Z" fill="url(#paint1_radial_2007_1272)"/>
<path opacity="0.32" d="M32.7575 8.05128H30.5847V7.89927C30.5847 7.03962 30.2432 6.21518 29.6354 5.60732C29.0275 4.99946 28.2031 4.65796 27.3434 4.65796C26.4838 4.65796 25.6593 4.99946 25.0514 5.60732C24.4436 6.21518 24.1021 7.03962 24.1021 7.89927V8.05128H21.1603V7.89927C21.1603 7.03962 20.8188 6.21518 20.211 5.60732C19.6031 4.99946 18.7787 4.65796 17.919 4.65796C17.4932 4.65737 17.0714 4.74081 16.6779 4.90349C16.2844 5.06618 15.9268 5.30491 15.6257 5.60601C15.3246 5.90711 15.0859 6.26467 14.9232 6.65819C14.7605 7.05171 14.6771 7.47345 14.6777 7.89927V8.05128H11.7359V7.89927C11.7047 7.05987 11.3494 6.26523 10.7445 5.6824C10.1396 5.09957 9.33235 4.77393 8.49237 4.77393C7.65239 4.77393 6.84513 5.09957 6.24025 5.6824C5.63538 6.26523 5.28002 7.05987 5.24885 7.89927V8.05128H3.08051C2.32401 8.05128 1.5985 8.35179 1.06358 8.88671C0.528662 9.42163 0.228149 10.1471 0.228149 10.9036V40.1023C0.228149 40.8587 0.528662 41.5843 1.06358 42.1192C1.5985 42.6541 2.32401 42.9546 3.08051 42.9546H32.7575C33.514 42.9546 34.2395 42.6541 34.7744 42.1192C35.3093 41.5843 35.6099 40.8587 35.6099 40.1023V10.9036C35.6099 10.1471 35.3093 9.42163 34.7744 8.88671C34.2395 8.35179 33.514 8.05128 32.7575 8.05128Z" fill="url(#paint2_radial_2007_1272)"/>
<path opacity="0.31" d="M32.7575 8.05103H30.5221V9.67392C30.5221 10.5336 30.1806 11.358 29.5728 11.9659C28.9649 12.5737 28.1405 12.9152 27.2808 12.9152C26.4212 12.9152 25.5967 12.5737 24.9889 11.9659C24.381 11.358 24.0395 10.5336 24.0395 9.67392V8.05103H21.1514V9.67392C21.1502 10.5332 20.8083 11.357 20.2007 11.9646C19.5931 12.5722 18.7694 12.914 17.9101 12.9152C17.0504 12.9152 16.226 12.5737 15.6181 11.9659C15.0102 11.358 14.6688 10.5336 14.6688 9.67392V8.05103H11.727V9.67392C11.7258 10.534 11.3833 11.3584 10.7748 11.9661C10.1662 12.5739 9.34128 12.9152 8.48122 12.9152C7.62193 12.914 6.79818 12.5722 6.19057 11.9646C5.58297 11.357 5.24109 10.5332 5.23991 9.67392V8.05103H3.07157C2.31508 8.05103 1.58959 8.35154 1.05467 8.88646C0.51975 9.42138 0.219238 10.1469 0.219238 10.9034V19.4515H35.6009V10.9034C35.6009 10.1484 35.3016 9.42427 34.7687 8.88961C34.2357 8.35495 33.5125 8.05339 32.7575 8.05103Z" fill="white"/>
<g opacity="0.31">
<path d="M10.2829 23.3994H5.04315V28.6392H10.2829V23.3994Z" fill="white"/>
<path d="M10.2829 33.4226H5.04315V38.6624H10.2829V33.4226Z" fill="white"/>
<path d="M20.4629 23.3994H15.2231V28.6392H20.4629V23.3994Z" fill="white"/>
<path d="M20.4629 33.4226H15.2231V38.6624H20.4629V33.4226Z" fill="white"/>
<path d="M30.6428 23.3994H25.4031V28.6392H30.6428V23.3994Z" fill="white"/>
<path d="M30.6428 33.4226H25.4031V38.6624H30.6428V33.4226Z" fill="white"/>
</g>
<defs>
<linearGradient id="paint0_linear_2007_1272" x1="17.919" y1="4.65796" x2="17.919" y2="42.9546" gradientUnits="userSpaceOnUse">
<stop stop-color="#FF0000"/>
<stop offset="1" stop-color="#FFAE28"/>
</linearGradient>
<radialGradient id="paint1_radial_2007_1272" cx="0" cy="0" r="1" gradientUnits="userSpaceOnUse" gradientTransform="translate(17.919 23.8063) scale(24.9737 24.9737)">
<stop stop-color="white" stop-opacity="0"/>
<stop offset="0.37" stop-color="white" stop-opacity="0.01"/>
<stop offset="0.51" stop-color="white" stop-opacity="0.03"/>
<stop offset="0.6" stop-color="white" stop-opacity="0.08"/>
<stop offset="0.68" stop-color="white" stop-opacity="0.15"/>
<stop offset="0.75" stop-color="white" stop-opacity="0.23"/>
<stop offset="0.8" stop-color="white" stop-opacity="0.34"/>
<stop offset="0.86" stop-color="white" stop-opacity="0.47"/>
<stop offset="0.91" stop-color="white" stop-opacity="0.61"/>
<stop offset="0.95" stop-color="white" stop-opacity="0.78"/>
<stop offset="0.99" stop-color="white" stop-opacity="0.96"/>
<stop offset="1" stop-color="white"/>
</radialGradient>
<radialGradient id="paint2_radial_2007_1272" cx="0" cy="0" r="1" gradientUnits="userSpaceOnUse" gradientTransform="translate(19.1216 -4.43559) scale(48.034 48.034)">
<stop stop-color="white"/>
<stop offset="0.07" stop-color="white" stop-opacity="0.89"/>
<stop offset="0.27" stop-color="white" stop-opacity="0.63"/>
<stop offset="0.46" stop-color="white" stop-opacity="0.4"/>
<stop offset="0.63" stop-color="white" stop-opacity="0.23"/>
<stop offset="0.78" stop-color="white" stop-opacity="0.1"/>
<stop offset="0.91" stop-color="white" stop-opacity="0.03"/>
<stop offset="1" stop-color="white" stop-opacity="0"/>
</radialGradient>
</defs>
</svg>
