<svg width="50" height="40" viewBox="0 0 50 40" fill="none" xmlns="http://www.w3.org/2000/svg">
<path opacity="0.15" d="M45.7628 3.67643H41.0707V2.61722C41.0713 2.33352 41.0163 2.05247 40.9089 1.79017C40.8015 1.52788 40.6437 1.28949 40.4446 1.08865C40.2455 0.887812 40.0091 0.728473 39.7487 0.619755C39.4883 0.511038 39.2093 0.455077 38.9274 0.455078H30.721C30.4391 0.455077 30.16 0.511038 29.8996 0.619755C29.6393 0.728473 29.4027 0.887812 29.2036 1.08865C29.0045 1.28949 28.8468 1.52788 28.7394 1.79017C28.6319 2.05247 28.577 2.33352 28.5776 2.61722V3.67643H11.8124C10.8961 3.67772 10.0177 4.04465 9.36977 4.69679C8.72185 5.34892 8.35726 6.23304 8.35599 7.1553V29.18C8.35599 30.1027 8.72016 30.9876 9.36836 31.64C10.0165 32.2924 10.8957 32.6589 11.8124 32.6589H45.7628C46.6795 32.6589 47.5587 32.2924 48.2069 31.64C48.8551 30.9876 49.2192 30.1027 49.2192 29.18V7.1553C49.2179 6.23304 48.8534 5.34892 48.2055 4.69679C47.5575 4.04465 46.6791 3.67772 45.7628 3.67643Z" fill="#8C8D92"/>
<path d="M41.7176 7.1845H36.4896V5.99896C36.4896 5.35883 36.2387 4.74456 35.7912 4.28966C35.3438 3.83476 34.7361 3.57598 34.1001 3.56958H24.9765C24.3364 3.56958 23.7224 3.82553 23.2698 4.28113C22.8171 4.73673 22.5628 5.35465 22.5628 5.99896V7.1845H3.86185C2.83762 7.1845 1.85534 7.59402 1.13111 8.32297C0.406869 9.05193 0 10.0406 0 11.0715V35.6034C0 36.6343 0.406869 37.6229 1.13111 38.3519C1.85534 39.0808 2.83762 39.4904 3.86185 39.4904H41.6935C42.7177 39.4904 43.7 39.0808 44.4242 38.3519C45.1484 37.6229 45.5553 36.6343 45.5553 35.6034V11.0569C45.5515 10.0327 45.1462 9.05147 44.4276 8.32635C43.709 7.60123 42.7351 7.19089 41.7176 7.1845Z" fill="url(#paint0_radial_4030_407)"/>
<g opacity="0.35">
<path d="M41.7176 7.1845H36.4896V5.99896C36.4896 5.35883 36.2387 4.74456 35.7912 4.28966C35.3438 3.83476 34.7361 3.57598 34.1001 3.56958H24.9765C24.3364 3.56958 23.7224 3.82553 23.2698 4.28113C22.8171 4.73673 22.5628 5.35465 22.5628 5.99896V7.1845H3.86185C2.83762 7.1845 1.85534 7.59402 1.13111 8.32297C0.406869 9.05193 0 10.0406 0 11.0715V35.6034C0 36.6343 0.406869 37.6229 1.13111 38.3519C1.85534 39.0808 2.83762 39.4904 3.86185 39.4904H41.6935C42.7177 39.4904 43.7 39.0808 44.4242 38.3519C45.1484 37.6229 45.5553 36.6343 45.5553 35.6034V11.0569C45.5515 10.0327 45.1462 9.05147 44.4276 8.32635C43.709 7.60123 42.7351 7.19089 41.7176 7.1845Z" fill="url(#paint1_radial_4030_407)"/>
</g>
<g opacity="0.35">
<path d="M41.7176 7.1845H36.4896V5.99896C36.4896 5.35883 36.2387 4.74456 35.7912 4.28966C35.3438 3.83476 34.7361 3.57598 34.1001 3.56958H24.9765C24.3364 3.56958 23.7224 3.82553 23.2698 4.28113C22.8171 4.73673 22.5628 5.35465 22.5628 5.99896V7.1845H3.86185C2.83762 7.1845 1.85534 7.59402 1.13111 8.32297C0.406869 9.05193 0 10.0406 0 11.0715V35.6034C0 36.6343 0.406869 37.6229 1.13111 38.3519C1.85534 39.0808 2.83762 39.4904 3.86185 39.4904H41.6935C42.7177 39.4904 43.7 39.0808 44.4242 38.3519C45.1484 37.6229 45.5553 36.6343 45.5553 35.6034V11.0569C45.5515 10.0327 45.1462 9.05147 44.4276 8.32635C43.709 7.60123 42.7351 7.19089 41.7176 7.1845Z" fill="url(#paint2_radial_4030_407)"/>
</g>
<path opacity="0.17" d="M24.6048 12.918C22.6523 12.918 20.7437 13.5007 19.1203 14.5925C17.4969 15.6843 16.2316 17.2361 15.4844 19.0517C14.7372 20.8673 14.5418 22.8651 14.9227 24.7926C15.3036 26.72 16.2438 28.4904 17.6244 29.88C19.005 31.2696 20.7639 32.216 22.6789 32.5994C24.5938 32.9827 26.5788 32.786 28.3826 32.0339C30.1865 31.2819 31.7282 30.0083 32.8129 28.3744C33.8977 26.7404 34.4766 24.8193 34.4766 22.8541C34.4766 20.2189 33.4366 17.6916 31.5852 15.8282C29.7339 13.9648 27.223 12.918 24.6048 12.918ZM24.6048 29.8799C23.2242 29.8799 21.8747 29.4678 20.7267 28.6958C19.5788 27.9238 18.6842 26.8266 18.1559 25.5428C17.6276 24.259 17.4893 22.8463 17.7586 21.4835C18.028 20.1206 18.6928 18.8687 19.669 17.8862C20.6452 16.9036 21.889 16.2344 23.243 15.9634C24.597 15.6923 26.0005 15.8314 27.276 16.3632C28.5515 16.8949 29.6417 17.7954 30.4087 18.9508C31.1757 20.1062 31.5851 21.4646 31.5851 22.8541C31.5838 24.7171 30.848 26.5034 29.5392 27.8207C28.2304 29.138 26.4557 29.8786 24.6048 29.8799Z" fill="white"/>
<path opacity="0.17" d="M9.64014 10.095H3.5722V12.9179H9.64014V10.095Z" fill="white"/>
<path opacity="0.5" d="M35.9248 2.70476C36.3793 2.70476 36.8152 2.88649 37.1366 3.20996C37.458 3.53344 37.6386 3.97216 37.6386 4.42962V5.61516C37.6386 5.79556 37.7097 5.96858 37.8365 6.09615C37.9632 6.22372 38.1351 6.29538 38.3144 6.29538H43.5423C44.3839 6.29538 45.1912 6.63155 45.7867 7.23006C46.3822 7.82858 46.7175 8.64051 46.7187 9.48758V34.034C46.7175 34.8815 46.3824 35.694 45.787 36.2933C45.1916 36.8925 44.3844 37.2298 43.5423 37.2311H5.71072C4.86868 37.2298 4.0615 36.8925 3.46609 36.2933C2.87069 35.694 2.53564 34.8815 2.53437 34.034V9.48758C2.53565 8.64051 2.87084 7.82858 3.46639 7.23006C4.06193 6.63155 4.86913 6.29538 5.71072 6.29538H24.4165C24.5053 6.29538 24.5932 6.27779 24.6752 6.2436C24.7572 6.20942 24.8317 6.15931 24.8944 6.09615C24.9572 6.03298 25.007 5.958 25.0409 5.87547C25.0749 5.79294 25.0924 5.70448 25.0924 5.61516V4.42962C25.0924 3.97216 25.2729 3.53344 25.5943 3.20996C25.9157 2.88649 26.3516 2.70476 26.8061 2.70476H35.9248ZM35.9248 2.02454H26.8061C26.166 2.02454 25.552 2.28049 25.0993 2.73609C24.6467 3.19168 24.3924 3.8096 24.3924 4.45391V5.63945H5.68661C4.66239 5.63945 3.68008 6.04897 2.95584 6.77793C2.23161 7.50688 1.82474 8.49556 1.82474 9.52646V34.0729C1.82474 35.1038 2.23161 36.0925 2.95584 36.8214C3.68008 37.5504 4.66239 37.9599 5.68661 37.9599H43.5182C44.5425 37.9599 45.5247 37.5504 46.249 36.8214C46.9732 36.0925 47.3801 35.1038 47.3801 34.0729V9.48758C47.3801 8.45669 46.9732 7.46801 46.249 6.73906C45.5247 6.0101 44.5425 5.60058 43.5182 5.60058H38.3144V4.42962C38.3144 3.78531 38.0601 3.16739 37.6074 2.71179C37.1548 2.25619 36.5409 2.00024 35.9007 2.00024L35.9248 2.02454Z" fill="url(#paint3_linear_4030_407)"/>
<defs>
<radialGradient id="paint0_radial_4030_407" cx="0" cy="0" r="1" gradientUnits="userSpaceOnUse" gradientTransform="translate(21.2112 20.721) scale(23.6538 23.8079)">
<stop stop-color="#6800FF"/>
<stop offset="0.33" stop-color="#6601FD"/>
<stop offset="0.52" stop-color="#5F04F4"/>
<stop offset="0.67" stop-color="#540AE6"/>
<stop offset="0.81" stop-color="#4412D3"/>
<stop offset="0.93" stop-color="#2F1CB9"/>
<stop offset="1" stop-color="#1F24A6"/>
</radialGradient>
<radialGradient id="paint1_radial_4030_407" cx="0" cy="0" r="1" gradientUnits="userSpaceOnUse" gradientTransform="translate(21.2498 21.8434) scale(25.9806 26.1498)">
<stop stop-color="white" stop-opacity="0"/>
<stop offset="0.37" stop-color="white" stop-opacity="0.01"/>
<stop offset="0.51" stop-color="white" stop-opacity="0.03"/>
<stop offset="0.6" stop-color="white" stop-opacity="0.08"/>
<stop offset="0.68" stop-color="white" stop-opacity="0.15"/>
<stop offset="0.75" stop-color="white" stop-opacity="0.23"/>
<stop offset="0.8" stop-color="white" stop-opacity="0.34"/>
<stop offset="0.86" stop-color="white" stop-opacity="0.47"/>
<stop offset="0.91" stop-color="white" stop-opacity="0.61"/>
<stop offset="0.95" stop-color="white" stop-opacity="0.78"/>
<stop offset="0.99" stop-color="white" stop-opacity="0.96"/>
<stop offset="1" stop-color="white"/>
</radialGradient>
<radialGradient id="paint2_radial_4030_407" cx="0" cy="0" r="1" gradientUnits="userSpaceOnUse" gradientTransform="translate(23.6828 9.16687) scale(56.8223 57.1924)">
<stop stop-color="white"/>
<stop offset="0.01" stop-color="white" stop-opacity="0.96"/>
<stop offset="0.05" stop-color="white" stop-opacity="0.78"/>
<stop offset="0.09" stop-color="white" stop-opacity="0.61"/>
<stop offset="0.14" stop-color="white" stop-opacity="0.47"/>
<stop offset="0.2" stop-color="white" stop-opacity="0.34"/>
<stop offset="0.25" stop-color="white" stop-opacity="0.23"/>
<stop offset="0.32" stop-color="white" stop-opacity="0.15"/>
<stop offset="0.4" stop-color="white" stop-opacity="0.08"/>
<stop offset="0.49" stop-color="white" stop-opacity="0.03"/>
<stop offset="0.63" stop-color="white" stop-opacity="0.01"/>
<stop offset="1" stop-color="white" stop-opacity="0"/>
</radialGradient>
<linearGradient id="paint3_linear_4030_407" x1="-1.24061" y1="10.61" x2="49.3382" y2="31.9321" gradientUnits="userSpaceOnUse">
<stop stop-color="white" stop-opacity="0"/>
<stop offset="0.03" stop-color="white" stop-opacity="0.12"/>
<stop offset="0.09" stop-color="white" stop-opacity="0.32"/>
<stop offset="0.15" stop-color="white" stop-opacity="0.5"/>
<stop offset="0.22" stop-color="white" stop-opacity="0.66"/>
<stop offset="0.28" stop-color="white" stop-opacity="0.78"/>
<stop offset="0.35" stop-color="white" stop-opacity="0.88"/>
<stop offset="0.42" stop-color="white" stop-opacity="0.95"/>
<stop offset="0.49" stop-color="white" stop-opacity="0.99"/>
<stop offset="0.58" stop-color="white"/>
<stop offset="0.59" stop-color="white" stop-opacity="0.96"/>
<stop offset="0.6" stop-color="white" stop-opacity="0.78"/>
<stop offset="0.62" stop-color="white" stop-opacity="0.61"/>
<stop offset="0.64" stop-color="white" stop-opacity="0.47"/>
<stop offset="0.66" stop-color="white" stop-opacity="0.34"/>
<stop offset="0.69" stop-color="white" stop-opacity="0.23"/>
<stop offset="0.72" stop-color="white" stop-opacity="0.15"/>
<stop offset="0.75" stop-color="white" stop-opacity="0.08"/>
<stop offset="0.79" stop-color="white" stop-opacity="0.03"/>
<stop offset="0.84" stop-color="white" stop-opacity="0.01"/>
<stop offset="1" stop-color="white" stop-opacity="0"/>
</linearGradient>
</defs>
</svg>
