<svg width="47" height="42" viewBox="0 0 47 42" fill="none" xmlns="http://www.w3.org/2000/svg">
<path opacity="0.15" d="M44.7278 37.8441C45.1104 33.7785 44.1941 29.6962 42.1105 26.1841C43.3279 24.9009 44.3085 23.4122 45.007 21.7871C47.5283 15.9026 45.9797 9.37686 41.6307 5.68213C41.7353 5.52927 41.8258 5.36721 41.9011 5.19794C42.2302 4.3176 42.2075 3.34435 41.8378 2.48029C41.4681 1.61623 40.7799 0.927745 39.9159 0.557803C39.052 0.18786 38.0787 0.164891 37.1983 0.493651C36.3178 0.822412 35.5978 1.47765 35.1878 2.3233C35.1175 2.49416 35.062 2.67075 35.022 2.85112C29.3513 2.24914 23.554 5.6298 21.0327 11.5143C20.3372 13.1407 19.9354 14.8775 19.8462 16.6442C15.8674 17.5567 12.2811 19.7089 9.6039 22.7904C9.29367 23.1607 9.07574 23.5994 8.968 24.0703C8.86027 24.5413 8.86582 25.0311 8.98419 25.4994C9.10256 25.9678 9.3304 26.4014 9.64895 26.7646C9.96749 27.1278 10.3677 27.4103 10.8166 27.5887L19.4754 31.2966C18.4329 33.735 20.3478 36.8888 23.7285 38.3414C27.1091 39.794 30.7079 39.0001 31.7635 36.566L40.4267 40.2782C40.8653 40.4782 41.3451 40.5716 41.8267 40.5506C42.3083 40.5296 42.7781 40.3949 43.1977 40.1574C43.6172 39.92 43.9745 39.5866 44.2405 39.1845C44.5064 38.7825 44.6734 38.3231 44.7278 37.8441Z" fill="#8C8D92"/>
<path d="M36.0603 38.612C36.4423 34.5464 35.526 30.4643 33.443 26.952C34.661 25.6718 35.6404 24.1842 36.3351 22.5594C38.8608 16.6749 37.3122 10.1448 32.9632 6.45439C33.0652 6.29993 33.1556 6.13808 33.2336 5.97019C33.569 5.08865 33.5507 4.1116 33.1824 3.24327C32.8142 2.37494 32.1246 1.68254 31.2578 1.3108C30.3909 0.939055 29.414 0.916751 28.5311 1.24855C27.6482 1.58034 26.9277 2.24056 26.5203 3.09119C26.4486 3.26305 26.3931 3.44121 26.3545 3.62337C20.6838 3.01703 14.8865 6.39768 12.3652 12.2866C11.6681 13.9109 11.2663 15.6466 11.1787 17.4121C7.19903 18.3281 3.61188 20.4813 0.932025 23.5627C0.621791 23.933 0.403861 24.3716 0.296129 24.8426C0.188398 25.3135 0.193945 25.8033 0.312317 26.2717C0.430689 26.7401 0.658503 27.1737 0.977046 27.5369C1.29559 27.9001 1.69578 28.1825 2.14471 28.361L10.8035 32.0732C9.76098 34.5072 11.676 37.6611 15.061 39.118C18.446 40.575 22.0404 39.7767 23.096 37.3383L31.7548 41.0504C32.194 41.2514 32.6745 41.3454 33.157 41.3246C33.6395 41.3038 34.1101 41.1688 34.5303 40.9309C34.9505 40.6929 35.3083 40.3586 35.5743 39.9555C35.8402 39.5524 36.0068 39.092 36.0603 38.612Z" fill="url(#paint0_radial_2007_1275)"/>
<mask id="mask0_2007_1275" style="mask-type:luminance" maskUnits="userSpaceOnUse" x="0" y="1" width="38" height="41">
<path d="M36.0603 38.612C36.4423 34.5464 35.526 30.4643 33.443 26.952C34.661 25.6718 35.6404 24.1842 36.3351 22.5594C38.8608 16.6749 37.3122 10.1448 32.9632 6.45439C33.0652 6.29993 33.1556 6.13808 33.2336 5.97019C33.569 5.08865 33.5507 4.1116 33.1824 3.24327C32.8142 2.37494 32.1246 1.68254 31.2578 1.3108C30.3909 0.939055 29.414 0.916751 28.5311 1.24855C27.6482 1.58034 26.9277 2.24056 26.5203 3.09119C26.4486 3.26305 26.3931 3.44121 26.3545 3.62337C20.6838 3.01703 14.8865 6.39768 12.3652 12.2866C11.6681 13.9109 11.2663 15.6466 11.1787 17.4121C7.19903 18.3281 3.61188 20.4813 0.932025 23.5627C0.621791 23.933 0.403861 24.3716 0.296129 24.8426C0.188398 25.3135 0.193945 25.8033 0.312317 26.2717C0.430689 26.7401 0.658503 27.1737 0.977046 27.5369C1.29559 27.9001 1.69578 28.1825 2.14471 28.361L10.8035 32.0732C9.76098 34.5072 11.676 37.6611 15.061 39.118C18.446 40.575 22.0404 39.7767 23.096 37.3383L31.7548 41.0504C32.194 41.2514 32.6745 41.3454 33.157 41.3246C33.6395 41.3038 34.1101 41.1688 34.5303 40.9309C34.9505 40.6929 35.3083 40.3586 35.5743 39.9555C35.8402 39.5524 36.0068 39.092 36.0603 38.612Z" fill="white"/>
</mask>
<g mask="url(#mask0_2007_1275)">
<path opacity="0.31" d="M29.5127 5.14117C30.6041 5.59977 31.6225 6.21553 32.5357 6.96891C32.8187 6.67477 33.0463 6.33193 33.2074 5.95689C33.5584 5.07535 33.5511 4.09157 33.1871 3.21534C32.823 2.33912 32.1311 1.6398 31.2587 1.26651C30.3864 0.893223 29.4027 0.875512 28.5175 1.21716C27.6323 1.55881 26.9156 2.23278 26.5203 3.09533C26.3667 3.45667 26.2766 3.84185 26.2542 4.23386C27.377 4.38448 28.4736 4.68981 29.5127 5.14117Z" fill="white"/>
</g>
<path opacity="0.35" d="M36.0603 38.612C36.4423 34.5464 35.526 30.4643 33.443 26.952C34.661 25.6718 35.6404 24.1842 36.3351 22.5594C38.8608 16.6749 37.3122 10.1448 32.9632 6.45439C33.0652 6.29993 33.1556 6.13808 33.2336 5.97019C33.569 5.08865 33.5507 4.1116 33.1824 3.24327C32.8142 2.37494 32.1246 1.68254 31.2578 1.3108C30.3909 0.939055 29.414 0.916751 28.5311 1.24855C27.6482 1.58034 26.9277 2.24056 26.5203 3.09119C26.4486 3.26305 26.3931 3.44121 26.3545 3.62337C20.6838 3.01703 14.8865 6.39768 12.3652 12.2866C11.6681 13.9109 11.2663 15.6466 11.1787 17.4121C7.19903 18.3281 3.61188 20.4813 0.932025 23.5627C0.621791 23.933 0.403861 24.3716 0.296129 24.8426C0.188398 25.3135 0.193945 25.8033 0.312317 26.2717C0.430689 26.7401 0.658503 27.1737 0.977046 27.5369C1.29559 27.9001 1.69578 28.1825 2.14471 28.361L10.8035 32.0732C9.76098 34.5072 11.676 37.6611 15.061 39.118C18.446 40.575 22.0404 39.7767 23.096 37.3383L31.7548 41.0504C32.194 41.2514 32.6745 41.3454 33.157 41.3246C33.6395 41.3038 34.1101 41.1688 34.5303 40.9309C34.9505 40.6929 35.3083 40.3586 35.5743 39.9555C35.8402 39.5524 36.0068 39.092 36.0603 38.612Z" fill="url(#paint1_radial_2007_1275)"/>
<path opacity="0.32" d="M36.0603 38.612C36.4423 34.5464 35.526 30.4643 33.443 26.952C34.661 25.6718 35.6404 24.1842 36.3351 22.5594C38.8608 16.6749 37.3122 10.1448 32.9632 6.45439C33.0652 6.29993 33.1556 6.13808 33.2336 5.97019C33.569 5.08865 33.5507 4.1116 33.1824 3.24327C32.8142 2.37494 32.1246 1.68254 31.2578 1.3108C30.3909 0.939055 29.414 0.916751 28.5311 1.24855C27.6482 1.58034 26.9277 2.24056 26.5203 3.09119C26.4486 3.26305 26.3931 3.44121 26.3545 3.62337C20.6838 3.01703 14.8865 6.39768 12.3652 12.2866C11.6681 13.9109 11.2663 15.6466 11.1787 17.4121C7.19903 18.3281 3.61188 20.4813 0.932025 23.5627C0.621791 23.933 0.403861 24.3716 0.296129 24.8426C0.188398 25.3135 0.193945 25.8033 0.312317 26.2717C0.430689 26.7401 0.658503 27.1737 0.977046 27.5369C1.29559 27.9001 1.69578 28.1825 2.14471 28.361L10.8035 32.0732C9.76098 34.5072 11.676 37.6611 15.061 39.118C18.446 40.575 22.0404 39.7767 23.096 37.3383L31.7548 41.0504C32.194 41.2514 32.6745 41.3454 33.157 41.3246C33.6395 41.3038 34.1101 41.1688 34.5303 40.9309C34.9505 40.6929 35.3083 40.3586 35.5743 39.9555C35.8402 39.5524 36.0068 39.092 36.0603 38.612Z" fill="url(#paint2_radial_2007_1275)"/>
<path opacity="0.31" d="M11.0696 31.4492L10.8079 32.0556C9.76538 34.4896 11.6804 37.6434 15.0654 39.1004C18.4504 40.5573 22.0448 39.7591 23.1004 37.3207L23.3578 36.7187L11.0696 31.4492Z" fill="white"/>
<path opacity="0.5" d="M31.0089 1.90028C31.7238 2.19338 32.2935 2.75761 32.5935 3.4696C32.8935 4.18158 32.8993 4.98339 32.6098 5.69969C32.5445 5.83537 32.4702 5.96653 32.3873 6.09228C32.2974 6.22884 32.2618 6.39413 32.2876 6.55561C32.3135 6.71708 32.3989 6.86303 32.5269 6.9647C36.7408 10.5417 38.0494 16.8493 35.7113 22.3063C35.046 23.8632 34.1079 25.2888 32.9413 26.5158C32.845 26.6177 32.7847 26.7484 32.7697 26.8878C32.7547 27.0273 32.7859 27.1678 32.8585 27.2879C34.8782 30.6774 35.7616 34.6238 35.3797 38.5509C35.3447 38.9232 35.2191 39.2812 35.0138 39.5937C34.8085 39.9063 34.5298 40.1638 34.202 40.3437C33.8711 40.5285 33.5018 40.6337 33.1233 40.6511C32.7447 40.6685 32.3673 40.5976 32.0209 40.444L23.3577 36.7362C23.1973 36.6668 23.016 36.6631 22.8529 36.7259C22.6898 36.7887 22.5578 36.913 22.4853 37.0721C21.5867 39.1703 18.3805 39.8159 15.3358 38.5116C12.291 37.2074 10.5374 34.4418 11.4491 32.3436C11.5155 32.1792 11.5142 31.9953 11.4456 31.8319C11.377 31.6685 11.2465 31.5388 11.0827 31.4712L2.42388 27.759C2.07292 27.6135 1.76058 27.3884 1.51152 27.1015C1.26246 26.8145 1.08347 26.4737 0.988725 26.1057C0.894085 25.744 0.889133 25.3646 0.974268 25.0005C1.0594 24.6364 1.23205 24.2986 1.47728 24.0163C4.05902 21.0347 7.52496 18.9548 11.3706 18.0794C11.5073 18.0484 11.6302 17.9737 11.7207 17.8667C11.8112 17.7597 11.8644 17.6261 11.8723 17.4862C11.9581 15.7944 12.3436 14.1314 13.0108 12.5744C15.3489 7.12175 20.819 3.71929 26.3153 4.28636C26.4736 4.30614 26.6336 4.2674 26.7654 4.17743C26.8971 4.08746 26.9915 3.95246 27.0307 3.79781C27.0645 3.64915 27.1097 3.50332 27.1659 3.36159C27.4839 2.65689 28.0687 2.10719 28.7917 1.83321C29.5146 1.55923 30.3168 1.58335 31.022 1.90028M31.2794 1.29394C30.4123 0.903499 29.4256 0.873511 28.5363 1.21055C27.6471 1.54759 26.9282 2.22405 26.5377 3.09114C26.4661 3.263 26.4106 3.44117 26.372 3.62332C20.7012 3.01699 14.9039 6.39763 12.3826 12.2865C11.6855 13.9109 11.2838 15.6466 11.1961 17.412C7.21648 18.328 3.62934 20.4812 0.949481 23.5626C0.639247 23.9329 0.421317 24.3716 0.313585 24.8425C0.205854 25.3135 0.211401 25.8033 0.329773 26.2716C0.448145 26.74 0.675959 27.1736 0.994502 27.5368C1.31305 27.9 1.71321 28.1825 2.16214 28.361L10.821 32.0731C9.77843 34.5072 11.6934 37.661 15.0784 39.118C18.4634 40.5749 22.0578 39.7766 23.1134 37.3382L31.7723 41.0504C32.21 41.2503 32.6887 41.3439 33.1694 41.3236C33.6501 41.3033 34.1192 41.1698 34.5385 40.9338C34.9578 40.6977 35.3154 40.366 35.5821 39.9655C35.8489 39.5651 36.0172 39.1073 36.0734 38.6294C36.4554 34.5638 35.5391 30.4817 33.4561 26.9694C34.6741 25.6892 35.6535 24.2016 36.3482 22.5768C38.8738 16.6923 37.3253 10.1622 32.9763 6.47179C33.0783 6.31734 33.1687 6.15549 33.2467 5.98759C33.6037 5.10588 33.5966 4.11861 33.2271 3.24209C32.8575 2.36557 32.1555 1.6713 31.275 1.31139L31.2794 1.29394Z" fill="url(#paint3_linear_2007_1275)"/>
<defs>
<radialGradient id="paint0_radial_2007_1275" cx="0" cy="0" r="1" gradientUnits="userSpaceOnUse" gradientTransform="translate(32.8606 -3.04193) rotate(22.9727) scale(52.5765 50.9179)">
<stop stop-color="#6800FF"/>
<stop offset="0.33" stop-color="#6601FD"/>
<stop offset="0.52" stop-color="#5F04F4"/>
<stop offset="0.67" stop-color="#540AE6"/>
<stop offset="0.81" stop-color="#4412D3"/>
<stop offset="0.93" stop-color="#2F1CB9"/>
<stop offset="1" stop-color="#1F24A6"/>
</radialGradient>
<radialGradient id="paint1_radial_2007_1275" cx="0" cy="0" r="1" gradientUnits="userSpaceOnUse" gradientTransform="translate(22.0497 20.5132) rotate(22.9727) scale(21.0794 20.4144)">
<stop stop-color="white" stop-opacity="0"/>
<stop offset="0.37" stop-color="white" stop-opacity="0.01"/>
<stop offset="0.51" stop-color="white" stop-opacity="0.03"/>
<stop offset="0.6" stop-color="white" stop-opacity="0.08"/>
<stop offset="0.68" stop-color="white" stop-opacity="0.15"/>
<stop offset="0.75" stop-color="white" stop-opacity="0.23"/>
<stop offset="0.8" stop-color="white" stop-opacity="0.34"/>
<stop offset="0.86" stop-color="white" stop-opacity="0.47"/>
<stop offset="0.91" stop-color="white" stop-opacity="0.61"/>
<stop offset="0.95" stop-color="white" stop-opacity="0.78"/>
<stop offset="0.99" stop-color="white" stop-opacity="0.96"/>
<stop offset="1" stop-color="white"/>
</radialGradient>
<radialGradient id="paint2_radial_2007_1275" cx="0" cy="0" r="1" gradientUnits="userSpaceOnUse" gradientTransform="translate(30.6045 4.00706) rotate(22.9727) scale(38.0659 36.865)">
<stop stop-color="white"/>
<stop offset="0.07" stop-color="white" stop-opacity="0.89"/>
<stop offset="0.27" stop-color="white" stop-opacity="0.63"/>
<stop offset="0.46" stop-color="white" stop-opacity="0.4"/>
<stop offset="0.63" stop-color="white" stop-opacity="0.23"/>
<stop offset="0.78" stop-color="white" stop-opacity="0.1"/>
<stop offset="0.91" stop-color="white" stop-opacity="0.03"/>
<stop offset="1" stop-color="white" stop-opacity="0"/>
</radialGradient>
<linearGradient id="paint3_linear_2007_1275" x1="20.8585" y1="0.198175" x2="18.0252" y2="41.2463" gradientUnits="userSpaceOnUse">
<stop stop-color="white" stop-opacity="0"/>
<stop offset="0.03" stop-color="white" stop-opacity="0.12"/>
<stop offset="0.09" stop-color="white" stop-opacity="0.32"/>
<stop offset="0.15" stop-color="white" stop-opacity="0.5"/>
<stop offset="0.22" stop-color="white" stop-opacity="0.66"/>
<stop offset="0.28" stop-color="white" stop-opacity="0.78"/>
<stop offset="0.35" stop-color="white" stop-opacity="0.88"/>
<stop offset="0.42" stop-color="white" stop-opacity="0.95"/>
<stop offset="0.49" stop-color="white" stop-opacity="0.99"/>
<stop offset="0.58" stop-color="white"/>
<stop offset="0.59" stop-color="white" stop-opacity="0.96"/>
<stop offset="0.6" stop-color="white" stop-opacity="0.78"/>
<stop offset="0.62" stop-color="white" stop-opacity="0.61"/>
<stop offset="0.64" stop-color="white" stop-opacity="0.47"/>
<stop offset="0.66" stop-color="white" stop-opacity="0.34"/>
<stop offset="0.69" stop-color="white" stop-opacity="0.23"/>
<stop offset="0.72" stop-color="white" stop-opacity="0.15"/>
<stop offset="0.75" stop-color="white" stop-opacity="0.08"/>
<stop offset="0.79" stop-color="white" stop-opacity="0.03"/>
<stop offset="0.84" stop-color="white" stop-opacity="0.01"/>
<stop offset="1" stop-color="white" stop-opacity="0"/>
</linearGradient>
</defs>
</svg>
