<svg width="50" height="40" viewBox="0 0 50 40" fill="none" xmlns="http://www.w3.org/2000/svg">
<path opacity="0.15" d="M45.9486 0.455078H9.48833C7.682 0.455078 6.21768 1.9194 6.21768 3.72573V29.1228C6.21768 30.9291 7.682 32.3934 9.48833 32.3934H45.9486C47.7549 32.3934 49.2193 30.9291 49.2193 29.1228V3.72573C49.2193 1.9194 47.7549 0.455078 45.9486 0.455078Z" fill="#8C8D92"/>
<path d="M39.731 7.40234H3.28521C1.47087 7.40234 6.10352e-05 8.87315 6.10352e-05 10.6875V36.2053C6.10352e-05 38.0197 1.47087 39.4905 3.28521 39.4905H39.731C41.5453 39.4905 43.0161 38.0197 43.0161 36.2053V10.6875C43.0161 8.87315 41.5453 7.40234 39.731 7.40234Z" fill="url(#paint0_radial_2007_829)"/>
<path opacity="0.32" d="M39.731 7.40234H3.28521C1.47087 7.40234 6.10352e-05 8.87315 6.10352e-05 10.6875V36.2053C6.10352e-05 38.0197 1.47087 39.4905 3.28521 39.4905H39.731C41.5453 39.4905 43.0161 38.0197 43.0161 36.2053V10.6875C43.0161 8.87315 41.5453 7.40234 39.731 7.40234Z" fill="url(#paint1_radial_2007_829)"/>
<path opacity="0.35" d="M39.731 7.40234H3.28521C1.47087 7.40234 6.10352e-05 8.87315 6.10352e-05 10.6875V36.2053C6.10352e-05 38.0197 1.47087 39.4905 3.28521 39.4905H39.731C41.5453 39.4905 43.0161 38.0197 43.0161 36.2053V10.6875C43.0161 8.87315 41.5453 7.40234 39.731 7.40234Z" fill="url(#paint2_radial_2007_829)"/>
<path opacity="0.31" d="M39.7503 7.40235H3.28517C2.85358 7.40171 2.4261 7.48625 2.02724 7.65112C1.62838 7.81599 1.26598 8.05795 0.960797 8.36313C0.655617 8.66831 0.413651 9.03071 0.248783 9.42957C0.0839139 9.82843 -0.000632533 10.2559 3.56276e-06 10.6875V13.7746C3.56276e-06 13.7746 19.0732 25.5673 21.508 25.5673C23.9429 25.5673 43.0161 13.7552 43.0161 13.7552V10.6875C43.0161 9.81955 42.6726 8.98688 42.0607 8.37135C41.4488 7.75582 40.6182 7.40745 39.7503 7.40235Z" fill="white"/>
<path opacity="0.5" d="M39.6005 8.11735C40.3061 8.11862 40.9824 8.39949 41.4814 8.89842C41.9803 9.39736 42.2612 10.0737 42.2625 10.7793V36.1135C42.2612 36.8191 41.9803 37.4955 41.4814 37.9944C40.9824 38.4933 40.3061 38.7742 39.6005 38.7755H3.41559C2.7096 38.7755 2.03255 38.495 1.53334 37.9958C1.03413 37.4966 0.753683 36.8195 0.753683 36.1135V10.7793C0.753683 10.4297 0.822511 10.0836 0.956286 9.76061C1.09006 9.43765 1.28616 9.1442 1.53334 8.89701C1.78052 8.64983 2.07396 8.45375 2.39692 8.31998C2.71988 8.1862 3.06602 8.11735 3.41559 8.11735H39.6005ZM39.7503 7.40235H3.28517C2.85358 7.40171 2.4261 7.48625 2.02724 7.65112C1.62838 7.81599 1.26598 8.05795 0.960797 8.36313C0.655617 8.66831 0.413651 9.03071 0.248783 9.42957C0.0839139 9.82843 -0.000632533 10.2559 3.56276e-06 10.6875V36.1957C3.56276e-06 37.067 0.346128 37.9025 0.962213 38.5186C1.5783 39.1347 2.4139 39.4808 3.28517 39.4808H39.7503C40.6212 39.4795 41.456 39.133 42.0718 38.5172C42.6876 37.9014 43.0341 37.0666 43.0354 36.1957V10.6875C43.0354 9.81622 42.6893 8.98063 42.0732 8.36454C41.4571 7.74846 40.6216 7.40235 39.7503 7.40235Z" fill="url(#paint3_linear_2007_829)"/>
<defs>
<radialGradient id="paint0_radial_2007_829" cx="0" cy="0" r="1" gradientUnits="userSpaceOnUse" gradientTransform="translate(47.9439 -13.4825) scale(70.2055 70.2055)">
<stop stop-color="#6800FF"/>
<stop offset="0.33" stop-color="#6601FD"/>
<stop offset="0.52" stop-color="#5F04F4"/>
<stop offset="0.67" stop-color="#540AE6"/>
<stop offset="0.81" stop-color="#4412D3"/>
<stop offset="0.93" stop-color="#2F1CB9"/>
<stop offset="1" stop-color="#1F24A6"/>
</radialGradient>
<radialGradient id="paint1_radial_2007_829" cx="0" cy="0" r="1" gradientUnits="userSpaceOnUse" gradientTransform="translate(11.3773 5.10757) scale(35.2235 35.2235)">
<stop stop-color="white"/>
<stop offset="0.07" stop-color="white" stop-opacity="0.89"/>
<stop offset="0.27" stop-color="white" stop-opacity="0.63"/>
<stop offset="0.46" stop-color="white" stop-opacity="0.4"/>
<stop offset="0.63" stop-color="white" stop-opacity="0.23"/>
<stop offset="0.78" stop-color="white" stop-opacity="0.1"/>
<stop offset="0.91" stop-color="white" stop-opacity="0.03"/>
<stop offset="1" stop-color="white" stop-opacity="0"/>
</radialGradient>
<radialGradient id="paint2_radial_2007_829" cx="0" cy="0" r="1" gradientUnits="userSpaceOnUse" gradientTransform="translate(21.3252 23.7372) rotate(-0.62) scale(25.9961 20.7969)">
<stop stop-color="white" stop-opacity="0"/>
<stop offset="0.37" stop-color="white" stop-opacity="0.01"/>
<stop offset="0.51" stop-color="white" stop-opacity="0.03"/>
<stop offset="0.6" stop-color="white" stop-opacity="0.08"/>
<stop offset="0.68" stop-color="white" stop-opacity="0.15"/>
<stop offset="0.75" stop-color="white" stop-opacity="0.23"/>
<stop offset="0.8" stop-color="white" stop-opacity="0.34"/>
<stop offset="0.86" stop-color="white" stop-opacity="0.47"/>
<stop offset="0.91" stop-color="white" stop-opacity="0.61"/>
<stop offset="0.95" stop-color="white" stop-opacity="0.78"/>
<stop offset="0.99" stop-color="white" stop-opacity="0.96"/>
<stop offset="1" stop-color="white"/>
</radialGradient>
<linearGradient id="paint3_linear_2007_829" x1="17.7253" y1="1.83209" x2="25.1314" y2="44.1573" gradientUnits="userSpaceOnUse">
<stop stop-color="white" stop-opacity="0"/>
<stop offset="0.03" stop-color="white" stop-opacity="0.12"/>
<stop offset="0.09" stop-color="white" stop-opacity="0.32"/>
<stop offset="0.15" stop-color="white" stop-opacity="0.5"/>
<stop offset="0.22" stop-color="white" stop-opacity="0.66"/>
<stop offset="0.28" stop-color="white" stop-opacity="0.78"/>
<stop offset="0.35" stop-color="white" stop-opacity="0.88"/>
<stop offset="0.42" stop-color="white" stop-opacity="0.95"/>
<stop offset="0.49" stop-color="white" stop-opacity="0.99"/>
<stop offset="0.58" stop-color="white"/>
<stop offset="0.59" stop-color="white" stop-opacity="0.96"/>
<stop offset="0.6" stop-color="white" stop-opacity="0.78"/>
<stop offset="0.62" stop-color="white" stop-opacity="0.61"/>
<stop offset="0.64" stop-color="white" stop-opacity="0.47"/>
<stop offset="0.66" stop-color="white" stop-opacity="0.34"/>
<stop offset="0.69" stop-color="white" stop-opacity="0.23"/>
<stop offset="0.72" stop-color="white" stop-opacity="0.15"/>
<stop offset="0.75" stop-color="white" stop-opacity="0.08"/>
<stop offset="0.79" stop-color="white" stop-opacity="0.03"/>
<stop offset="0.84" stop-color="white" stop-opacity="0.01"/>
<stop offset="1" stop-color="white" stop-opacity="0"/>
</linearGradient>
</defs>
</svg>
