<svg width="50" height="45" viewBox="0 0 50 45" fill="none" xmlns="http://www.w3.org/2000/svg">
<path opacity="0.15" d="M47.2327 13.5766H46.5868C46.1924 13.5751 45.8074 13.4566 45.4805 13.2361C45.1537 13.0155 44.8996 12.7029 44.7507 12.3378C44.3581 11.3841 43.8782 10.4688 43.3172 9.6035C43.1023 9.27347 42.9902 8.88715 42.9949 8.49338C42.9996 8.09961 43.121 7.71608 43.3437 7.39131L43.7109 6.85596C44.0098 6.42404 44.125 5.89114 44.0313 5.37432C43.9376 4.8575 43.6425 4.39901 43.211 4.09957L37.8398 0.37868C37.4072 0.0795584 36.8736 -0.0357991 36.356 0.0579229C35.8385 0.151645 35.3792 0.446785 35.079 0.878623L34.7118 1.40955C34.4867 1.73317 34.1706 1.98253 33.8034 2.12592C33.4363 2.26931 33.0348 2.30025 32.65 2.21479C30.2675 1.70161 27.8031 1.70161 25.4206 2.21479C25.0358 2.30025 24.6343 2.26931 24.2671 2.12592C23.9 1.98253 23.5838 1.73317 23.3588 1.40955L22.9916 0.878623C22.6913 0.446785 22.2321 0.151645 21.7145 0.0579229C21.197 -0.0357991 20.6634 0.0795584 20.2307 0.37868L14.8596 4.09957C14.428 4.39901 14.133 4.8575 14.0392 5.37432C13.9455 5.89114 14.0607 6.42404 14.3596 6.85596L14.7268 7.39131C14.9496 7.71608 15.0709 8.09961 15.0757 8.49338C15.0804 8.88715 14.9682 9.27347 14.7534 9.6035C14.1924 10.4688 13.7125 11.3841 13.3199 12.3378C13.1706 12.7036 12.9159 13.0167 12.5882 13.2373C12.2604 13.4579 11.8744 13.576 11.4793 13.5766H10.8378C10.5766 13.5766 10.3179 13.6281 10.0766 13.7282C9.83525 13.8283 9.61606 13.9751 9.43153 14.16C9.247 14.3449 9.10079 14.5645 9.00122 14.806C8.90164 15.0475 8.85068 15.3063 8.85126 15.5676V22.1024C8.85126 22.363 8.90268 22.6211 9.00257 22.8619C9.10245 23.1027 9.24884 23.3214 9.43337 23.5055C9.61789 23.6896 9.83694 23.8355 10.0779 23.9349C10.3189 24.0342 10.5771 24.0851 10.8378 24.0845H11.4793C11.8742 24.0862 12.2596 24.2048 12.5872 24.4253C12.9147 24.6457 13.1696 24.9582 13.3199 25.3233C13.7125 26.2769 14.1924 27.1923 14.7534 28.0576C14.9671 28.388 15.0786 28.7742 15.0739 29.1677C15.0692 29.5612 14.9484 29.9446 14.7268 30.2698L14.3596 30.8007C14.0605 31.2333 13.9451 31.7669 14.0389 32.2845C14.1326 32.802 14.4277 33.2613 14.8596 33.5615L20.2307 37.278C20.6634 37.5771 21.197 37.6925 21.7145 37.5987C22.2321 37.505 22.6913 37.2099 22.9916 36.778L23.3588 36.2471C23.5838 35.9235 23.9 35.6741 24.2671 35.5307C24.6343 35.3873 25.0358 35.3564 25.4206 35.4419C27.8024 35.9609 30.2681 35.9609 32.65 35.4419C33.0348 35.3564 33.4363 35.3873 33.8034 35.5307C34.1706 35.6741 34.4867 35.9235 34.7118 36.2471L35.079 36.778C35.3792 37.2099 35.8385 37.505 36.356 37.5987C36.8736 37.6925 37.4072 37.5771 37.8398 37.278L43.211 33.5615C43.6428 33.2613 43.938 32.802 44.0317 32.2845C44.1254 31.7669 44.01 31.2333 43.7109 30.8007L43.3437 30.2698C43.1221 29.9446 43.0014 29.5612 42.9967 29.1677C42.9919 28.7742 43.1034 28.388 43.3172 28.0576C43.8782 27.1923 44.3581 26.2769 44.7507 25.3233C44.9006 24.9589 45.1549 24.6469 45.4815 24.4265C45.8082 24.2061 46.1927 24.0871 46.5868 24.0845H47.2327C47.4934 24.0851 47.7516 24.0342 47.9926 23.9349C48.2336 23.8355 48.4527 23.6896 48.6372 23.5055C48.8217 23.3214 48.9681 23.1027 49.068 22.8619C49.1679 22.6211 49.2193 22.363 49.2193 22.1024V15.5676C49.2199 15.3063 49.1689 15.0475 49.0694 14.806C48.9698 14.5645 48.8235 14.3449 48.639 14.16C48.4545 13.9751 48.2353 13.8283 47.994 13.7282C47.7527 13.6281 47.494 13.5766 47.2327 13.5766ZM29.0353 27.8496C27.2496 27.8514 25.5035 27.3234 24.018 26.3325C22.5325 25.3416 21.3742 23.9324 20.6898 22.283C20.0055 20.6337 19.8257 18.8184 20.1734 17.0669C20.521 15.3154 21.3804 13.7063 22.6427 12.4433C23.9051 11.1803 25.5137 10.3202 27.2651 9.97171C29.0164 9.62324 30.8318 9.80209 32.4814 10.4856C34.1311 11.1692 35.541 12.3267 36.5326 13.8118C37.5242 15.2968 38.053 17.0426 38.0522 18.8283C38.0522 21.2202 37.1023 23.5141 35.4114 25.2058C33.7206 26.8975 31.4271 27.8485 29.0353 27.8496Z" fill="#8C8D92"/>
<path d="M42.6357 18.1693H41.919C41.4843 18.1657 41.0602 18.0341 40.6998 17.791C40.3394 17.5479 40.0587 17.2039 39.8926 16.8021C39.4572 15.7482 38.9255 14.7366 38.3043 13.7803C38.0672 13.4142 37.9437 12.9862 37.9492 12.55C37.9547 12.1139 38.089 11.6892 38.3352 11.3292L38.7423 10.7407C39.0672 10.2609 39.1908 9.67266 39.0865 9.10261C38.9823 8.53256 38.6585 8.02619 38.1848 7.69234L32.2517 3.57766C31.7715 3.25141 31.1823 3.12702 30.6112 3.23131C30.04 3.3356 29.5328 3.66022 29.1989 4.13514L28.7919 4.71916C28.541 5.07422 28.1911 5.3475 27.7859 5.50488C27.3807 5.66225 26.938 5.69674 26.5133 5.60404C23.8892 5.03502 21.1736 5.03502 18.5494 5.60404C18.124 5.69768 17.6805 5.66366 17.2744 5.50624C16.8682 5.34883 16.5176 5.07503 16.2664 4.71916L15.8638 4.13514C15.5299 3.66022 15.0227 3.3356 14.4516 3.23131C13.8805 3.12702 13.2912 3.25141 12.811 3.57766L6.8735 7.69234C6.40053 8.02686 6.07765 8.53355 5.97424 9.10356C5.87082 9.67357 5.99514 10.2614 6.32046 10.7407L6.72749 11.3292C6.97304 11.6896 7.10658 12.1146 7.1113 12.5507C7.11603 12.9868 6.99173 13.4146 6.75404 13.7803C6.1359 14.7377 5.60575 15.7491 5.1701 16.8021C5.00375 17.2046 4.72231 17.549 4.36106 17.7922C3.9998 18.0354 3.57481 18.1666 3.13933 18.1693H2.42698C1.84412 18.1751 1.28711 18.4107 0.87702 18.825C0.466927 19.2392 0.236909 19.7986 0.236938 20.3815V27.602C0.236909 28.1849 0.466927 28.7443 0.87702 29.1585C1.28711 29.5728 1.84412 29.8084 2.42698 29.8142H3.0995C3.53498 29.8169 3.95999 29.9481 4.32125 30.1913C4.68251 30.4345 4.96395 30.7789 5.1303 31.1814C5.56501 32.2348 6.09518 33.2463 6.71421 34.2032C6.95189 34.5689 7.0762 34.9967 7.07147 35.4328C7.06675 35.8689 6.93321 36.2939 6.68766 36.6543L6.28063 37.2428C5.95393 37.7224 5.82882 38.3113 5.93227 38.8824C6.03573 39.4534 6.35946 39.961 6.83367 40.2956L12.7712 44.4058C13.2514 44.7321 13.8406 44.8565 14.4117 44.7522C14.9829 44.6479 15.4901 44.3233 15.824 43.8484L16.2266 43.2643C16.4778 42.9085 16.8284 42.6347 17.2345 42.4773C17.6407 42.3198 18.0842 42.2858 18.5096 42.3795C21.1337 42.9485 23.8494 42.9485 26.4735 42.3795C26.8982 42.2868 27.3408 42.3212 27.7461 42.4786C28.1513 42.636 28.5012 42.9093 28.752 43.2643L29.1591 43.8484C29.493 44.3233 30.0002 44.6479 30.5713 44.7522C31.1424 44.8565 31.7317 44.7321 32.2119 44.4058L38.145 40.2956C38.6199 39.9617 38.9445 39.4544 39.0488 38.8833C39.1531 38.3122 39.0287 37.723 38.7024 37.2428L38.2954 36.6543C38.0492 36.2943 37.9149 35.8696 37.9094 35.4334C37.9039 34.9973 38.0274 34.5693 38.2644 34.2032C38.8866 33.2474 39.4183 32.2358 39.8528 31.1814C40.0189 30.7796 40.2996 30.4356 40.66 30.1925C41.0204 29.9493 41.4444 29.8178 41.8792 29.8142H42.5959C43.1788 29.8084 43.7358 29.5728 44.1459 29.1585C44.556 28.7443 44.786 28.1849 44.786 27.602V20.3638C44.7816 19.7907 44.555 19.2417 44.154 18.8323C43.7529 18.423 43.2086 18.1853 42.6357 18.1693Z" fill="url(#paint0_linear_2007_1278)"/>
<path opacity="0.35" d="M42.6357 18.1693H41.919C41.4843 18.1657 41.0602 18.0341 40.6998 17.791C40.3394 17.5479 40.0587 17.2039 39.8926 16.8021C39.4572 15.7482 38.9255 14.7366 38.3043 13.7803C38.0672 13.4142 37.9437 12.9862 37.9492 12.55C37.9547 12.1139 38.089 11.6892 38.3352 11.3292L38.7423 10.7407C39.0672 10.2609 39.1908 9.67266 39.0865 9.10261C38.9823 8.53256 38.6585 8.02619 38.1848 7.69234L32.2517 3.57766C31.7715 3.25141 31.1823 3.12702 30.6112 3.23131C30.04 3.3356 29.5328 3.66022 29.1989 4.13514L28.7919 4.71916C28.541 5.07422 28.1911 5.3475 27.7859 5.50488C27.3807 5.66225 26.938 5.69674 26.5133 5.60404C23.8892 5.03502 21.1736 5.03502 18.5494 5.60404C18.124 5.69768 17.6805 5.66366 17.2744 5.50624C16.8682 5.34883 16.5176 5.07503 16.2664 4.71916L15.8638 4.13514C15.5299 3.66022 15.0227 3.3356 14.4516 3.23131C13.8805 3.12702 13.2912 3.25141 12.811 3.57766L6.8735 7.69234C6.40053 8.02686 6.07765 8.53355 5.97424 9.10356C5.87082 9.67357 5.99514 10.2614 6.32046 10.7407L6.72749 11.3292C6.97304 11.6896 7.10658 12.1146 7.1113 12.5507C7.11603 12.9868 6.99173 13.4146 6.75404 13.7803C6.1359 14.7377 5.60575 15.7491 5.1701 16.8021C5.00375 17.2046 4.72231 17.549 4.36106 17.7922C3.9998 18.0354 3.57481 18.1666 3.13933 18.1693H2.42698C1.84412 18.1751 1.28711 18.4107 0.87702 18.825C0.466927 19.2392 0.236909 19.7986 0.236938 20.3815V27.602C0.236909 28.1849 0.466927 28.7443 0.87702 29.1585C1.28711 29.5728 1.84412 29.8084 2.42698 29.8142H3.0995C3.53498 29.8169 3.95999 29.9481 4.32125 30.1913C4.68251 30.4345 4.96395 30.7789 5.1303 31.1814C5.56501 32.2348 6.09518 33.2463 6.71421 34.2032C6.95189 34.5689 7.0762 34.9967 7.07147 35.4328C7.06675 35.8689 6.93321 36.2939 6.68766 36.6543L6.28063 37.2428C5.95393 37.7224 5.82882 38.3113 5.93227 38.8824C6.03573 39.4534 6.35946 39.961 6.83367 40.2956L12.7712 44.4058C13.2514 44.7321 13.8406 44.8565 14.4117 44.7522C14.9829 44.6479 15.4901 44.3233 15.824 43.8484L16.2266 43.2643C16.4778 42.9085 16.8284 42.6347 17.2345 42.4773C17.6407 42.3198 18.0842 42.2858 18.5096 42.3795C21.1337 42.9485 23.8494 42.9485 26.4735 42.3795C26.8982 42.2868 27.3408 42.3212 27.7461 42.4786C28.1513 42.636 28.5012 42.9093 28.752 43.2643L29.1591 43.8484C29.493 44.3233 30.0002 44.6479 30.5713 44.7522C31.1424 44.8565 31.7317 44.7321 32.2119 44.4058L38.145 40.2956C38.6199 39.9617 38.9445 39.4544 39.0488 38.8833C39.1531 38.3122 39.0287 37.723 38.7024 37.2428L38.2954 36.6543C38.0492 36.2943 37.9149 35.8696 37.9094 35.4334C37.9039 34.9973 38.0274 34.5693 38.2644 34.2032C38.8866 33.2474 39.4183 32.2358 39.8528 31.1814C40.0189 30.7796 40.2996 30.4356 40.66 30.1925C41.0204 29.9493 41.4444 29.8178 41.8792 29.8142H42.5959C43.1788 29.8084 43.7358 29.5728 44.1459 29.1585C44.556 28.7443 44.786 28.1849 44.786 27.602V20.3638C44.7816 19.7907 44.555 19.2417 44.154 18.8323C43.7529 18.423 43.2086 18.1853 42.6357 18.1693Z" fill="url(#paint1_radial_2007_1278)"/>
<path opacity="0.32" d="M42.6357 18.1693H41.919C41.4843 18.1657 41.0602 18.0341 40.6998 17.791C40.3394 17.5479 40.0587 17.2039 39.8926 16.8021C39.4572 15.7482 38.9255 14.7366 38.3043 13.7803C38.0672 13.4142 37.9437 12.9862 37.9492 12.55C37.9547 12.1139 38.089 11.6892 38.3352 11.3292L38.7423 10.7407C39.0672 10.2609 39.1908 9.67266 39.0865 9.10261C38.9823 8.53256 38.6585 8.02619 38.1848 7.69234L32.2517 3.57766C31.7715 3.25141 31.1823 3.12702 30.6112 3.23131C30.04 3.3356 29.5328 3.66022 29.1989 4.13514L28.7919 4.71916C28.541 5.07422 28.1911 5.3475 27.7859 5.50488C27.3807 5.66225 26.938 5.69674 26.5133 5.60404C23.8892 5.03502 21.1736 5.03502 18.5494 5.60404C18.124 5.69768 17.6805 5.66366 17.2744 5.50624C16.8682 5.34883 16.5176 5.07503 16.2664 4.71916L15.8638 4.13514C15.5299 3.66022 15.0227 3.3356 14.4516 3.23131C13.8805 3.12702 13.2912 3.25141 12.811 3.57766L6.8735 7.69234C6.40053 8.02686 6.07765 8.53355 5.97424 9.10356C5.87082 9.67357 5.99514 10.2614 6.32046 10.7407L6.72749 11.3292C6.97304 11.6896 7.10658 12.1146 7.1113 12.5507C7.11603 12.9868 6.99173 13.4146 6.75404 13.7803C6.1359 14.7377 5.60575 15.7491 5.1701 16.8021C5.00375 17.2046 4.72231 17.549 4.36106 17.7922C3.9998 18.0354 3.57481 18.1666 3.13933 18.1693H2.42698C1.84412 18.1751 1.28711 18.4107 0.87702 18.825C0.466927 19.2392 0.236909 19.7986 0.236938 20.3815V27.602C0.236909 28.1849 0.466927 28.7443 0.87702 29.1585C1.28711 29.5728 1.84412 29.8084 2.42698 29.8142H3.0995C3.53498 29.8169 3.95999 29.9481 4.32125 30.1913C4.68251 30.4345 4.96395 30.7789 5.1303 31.1814C5.56501 32.2348 6.09518 33.2463 6.71421 34.2032C6.95189 34.5689 7.0762 34.9967 7.07147 35.4328C7.06675 35.8689 6.93321 36.2939 6.68766 36.6543L6.28063 37.2428C5.95393 37.7224 5.82882 38.3113 5.93227 38.8824C6.03573 39.4534 6.35946 39.961 6.83367 40.2956L12.7712 44.4058C13.2514 44.7321 13.8406 44.8565 14.4117 44.7522C14.9829 44.6479 15.4901 44.3233 15.824 43.8484L16.2266 43.2643C16.4778 42.9085 16.8284 42.6347 17.2345 42.4773C17.6407 42.3198 18.0842 42.2858 18.5096 42.3795C21.1337 42.9485 23.8494 42.9485 26.4735 42.3795C26.8982 42.2868 27.3408 42.3212 27.7461 42.4786C28.1513 42.636 28.5012 42.9093 28.752 43.2643L29.1591 43.8484C29.493 44.3233 30.0002 44.6479 30.5713 44.7522C31.1424 44.8565 31.7317 44.7321 32.2119 44.4058L38.145 40.2956C38.6199 39.9617 38.9445 39.4544 39.0488 38.8833C39.1531 38.3122 39.0287 37.723 38.7024 37.2428L38.2954 36.6543C38.0492 36.2943 37.9149 35.8696 37.9094 35.4334C37.9039 34.9973 38.0274 34.5693 38.2644 34.2032C38.8866 33.2474 39.4183 32.2358 39.8528 31.1814C40.0189 30.7796 40.2996 30.4356 40.66 30.1925C41.0204 29.9493 41.4444 29.8178 41.8792 29.8142H42.5959C43.1788 29.8084 43.7358 29.5728 44.1459 29.1585C44.556 28.7443 44.786 28.1849 44.786 27.602V20.3638C44.7816 19.7907 44.555 19.2417 44.154 18.8323C43.7529 18.423 43.2086 18.1853 42.6357 18.1693Z" fill="url(#paint2_radial_2007_1278)"/>
<path opacity="0.5" d="M31.0041 3.89576C31.3048 3.89609 31.5983 3.98875 31.8447 4.16122L37.7822 8.27147C38.1057 8.49587 38.327 8.83943 38.3975 9.22679C38.468 9.61415 38.382 10.0137 38.1583 10.3376L37.7512 10.9261C37.4241 11.4011 37.2455 11.9626 37.2385 12.5394C37.2314 13.1161 37.396 13.6819 37.7114 14.1647C38.305 15.0867 38.8158 16.0595 39.2378 17.0716C39.4542 17.6055 39.8249 18.0629 40.3024 18.3852C40.78 18.7076 41.3428 18.8802 41.919 18.8811H42.6357C43.0288 18.8811 43.4058 19.0373 43.6838 19.3152C43.9618 19.5932 44.1179 19.9702 44.1179 20.3633V27.5839C44.1179 27.9774 43.9619 28.3548 43.6841 28.6335C43.4062 28.9122 43.0292 29.0693 42.6357 29.0705H41.919C41.3432 29.0704 40.7805 29.2422 40.3029 29.5638C39.8252 29.8853 39.4544 30.3421 39.2378 30.8756C38.8158 31.8877 38.305 32.8604 37.7114 33.7824C37.396 34.2653 37.2314 34.8311 37.2385 35.4078C37.2455 35.9845 37.4241 36.5461 37.7512 37.0211L38.1583 37.6095C38.382 37.9335 38.468 38.333 38.3975 38.7204C38.327 39.1077 38.1057 39.4513 37.7822 39.6757L31.858 43.7859C31.6981 43.8972 31.5178 43.9757 31.3274 44.017C31.1371 44.0583 30.9405 44.0616 30.7489 44.0266C30.5573 43.9917 30.3745 43.9192 30.211 43.8134C30.0475 43.7075 29.9065 43.5704 29.7962 43.4099L29.3892 42.8259C29.1218 42.4399 28.7646 42.1247 28.3485 41.9074C27.9323 41.69 27.4695 41.5771 27 41.5782C26.7903 41.5784 26.5812 41.6006 26.3762 41.6446C23.8445 42.1991 21.2227 42.1991 18.691 41.6446C18.4845 41.6004 18.2739 41.5781 18.0628 41.5782C17.5939 41.5774 17.1319 41.6905 16.7165 41.9079C16.3011 42.1252 15.9447 42.4402 15.678 42.8259L15.271 43.4099C15.1603 43.5705 15.0189 43.7078 14.855 43.8137C14.6911 43.9196 14.5079 43.9921 14.316 44.027C14.124 44.0619 13.927 44.0586 13.7364 44.0173C13.5457 43.9759 13.365 43.8973 13.2048 43.7859L7.26727 39.6757C7.10696 39.5646 6.97014 39.423 6.86466 39.259C6.75918 39.0949 6.68712 38.9117 6.6526 38.7197C6.61807 38.5278 6.62178 38.3309 6.66348 38.1404C6.70518 37.9499 6.78407 37.7695 6.89564 37.6095L7.30267 37.0211C7.62986 36.5461 7.80836 35.9845 7.81545 35.4078C7.82255 34.8311 7.65791 34.2653 7.3425 33.7824C6.74547 32.8625 6.2345 31.8894 5.81609 30.8756C5.59823 30.3421 5.22648 29.8855 4.7482 29.564C4.26993 29.2426 3.70676 29.0707 3.13049 29.0705H2.41817C2.02467 29.0693 1.64767 28.9122 1.36984 28.6335C1.092 28.3548 0.935984 27.9774 0.935985 27.5839V20.3633C0.935985 19.9702 1.09215 19.5932 1.37011 19.3152C1.64807 19.0373 2.02507 18.8811 2.41817 18.8811H3.09951C3.67616 18.8799 4.23941 18.7072 4.71763 18.385C5.19586 18.0627 5.56744 17.6055 5.78511 17.0716C6.20353 16.0578 6.7145 15.0847 7.31153 14.1647C7.62694 13.6819 7.79157 13.1161 7.78448 12.5394C7.77739 11.9626 7.59889 11.4011 7.2717 10.9261L6.86466 10.3376C6.7531 10.1777 6.67421 9.99728 6.63251 9.80676C6.5908 9.61624 6.5871 9.41937 6.62162 9.22742C6.65615 9.03548 6.72821 8.85223 6.83369 8.68819C6.93917 8.52415 7.07598 8.38254 7.23629 8.27147L13.1738 4.16122C13.3341 4.04988 13.5147 3.97127 13.7054 3.9299C13.8961 3.88854 14.093 3.88523 14.285 3.92017C14.477 3.95511 14.6601 4.02761 14.824 4.13352C14.9879 4.23942 15.1293 4.37664 15.24 4.5373L15.647 5.12132C15.9137 5.50692 16.2701 5.82195 16.6855 6.03929C17.1009 6.25663 17.5629 6.36977 18.0318 6.36898C18.243 6.36904 18.4535 6.34679 18.66 6.30262C21.1924 5.75375 23.8129 5.75375 26.3452 6.30262C26.5502 6.34655 26.7593 6.36879 26.969 6.36898C27.4385 6.37011 27.9013 6.25715 28.3175 6.03981C28.7337 5.82247 29.0908 5.50727 29.3582 5.12132L29.7652 4.5373C29.9013 4.33911 30.0836 4.1771 30.2964 4.0653C30.5092 3.95351 30.746 3.89531 30.9864 3.89576M30.9864 3.18785C30.6316 3.18937 30.2824 3.27618 29.9682 3.44096C29.6541 3.60575 29.3841 3.84368 29.1812 4.13468L28.7742 4.7187C28.5254 5.07597 28.1757 5.35097 27.7698 5.50859C27.364 5.6662 26.9204 5.69927 26.4956 5.60357C23.8715 5.03456 21.1559 5.03456 18.5317 5.60357C18.1064 5.69721 17.6628 5.66319 17.2567 5.50578C16.8505 5.34836 16.4999 5.07456 16.2487 4.7187L15.8461 4.13468C15.5122 3.65976 15.005 3.33514 14.4339 3.23084C13.8628 3.12655 13.2735 3.25095 12.7933 3.5772L6.8558 7.69188C6.38283 8.02639 6.05995 8.53309 5.95654 9.1031C5.85312 9.6731 5.97744 10.2609 6.30276 10.7403L6.70979 11.3287C6.95534 11.6892 7.08888 12.1141 7.0936 12.5503C7.09833 12.9864 6.97403 13.4141 6.73634 13.7798C6.1182 14.7372 5.58807 15.7486 5.15243 16.8017C4.98608 17.2041 4.70464 17.5486 4.34338 17.7918C3.98213 18.035 3.55711 18.1661 3.12163 18.1688H2.40931C1.82644 18.1746 1.26944 18.4103 0.859347 18.8245C0.449254 19.2387 0.219209 19.7981 0.219238 20.381V27.6016C0.219209 28.1845 0.449254 28.7438 0.859347 29.1581C1.26944 29.5723 1.82644 29.8079 2.40931 29.8138H3.09951C3.535 29.8165 3.96001 29.9476 4.32127 30.1908C4.68252 30.434 4.96396 30.7784 5.13031 31.1809C5.56502 32.2344 6.09519 33.2459 6.71422 34.2027C6.95191 34.5684 7.07621 34.9962 7.07149 35.4323C7.06676 35.8684 6.93323 36.2934 6.68768 36.6539L6.28064 37.2423C5.95394 37.722 5.82883 38.3108 5.93229 38.8819C6.03574 39.453 6.35948 39.9605 6.83369 40.2951L12.7712 44.4054C13.2514 44.7316 13.8406 44.856 14.4118 44.7517C14.9829 44.6474 15.4901 44.3228 15.824 43.8479L16.2266 43.2639C16.4778 42.908 16.8284 42.6342 17.2345 42.4768C17.6407 42.3194 18.0842 42.2854 18.5096 42.379C21.1338 42.948 23.8494 42.948 26.4735 42.379C26.8982 42.2833 27.3418 42.3164 27.7477 42.474C28.1536 42.6316 28.5032 42.9066 28.752 43.2639L29.1591 43.8479C29.362 44.1389 29.6319 44.3768 29.9461 44.5416C30.2603 44.7064 30.6095 44.7932 30.9642 44.7947C31.4098 44.7935 31.8447 44.6578 32.2119 44.4054L38.145 40.2951C38.6199 39.9612 38.9446 39.454 39.0488 38.8829C39.1531 38.3117 39.0287 37.7225 38.7025 37.2423L38.2954 36.6539C38.0492 36.2938 37.9149 35.8691 37.9094 35.433C37.9039 34.9969 38.0274 34.5689 38.2645 34.2027C38.8866 33.247 39.4184 32.2353 39.8528 31.1809C40.0189 30.7791 40.2996 30.4352 40.66 30.192C41.0204 29.9489 41.4445 29.8173 41.8792 29.8138H42.5959C43.1788 29.8079 43.7358 29.5723 44.1459 29.1581C44.556 28.7438 44.786 28.1845 44.786 27.6016V20.3633C44.786 19.7804 44.556 19.221 44.1459 18.8068C43.7358 18.3926 43.1788 18.1569 42.5959 18.1511H41.8792C41.4445 18.1475 41.0204 18.016 40.66 17.7728C40.2996 17.5297 40.0189 17.1857 39.8528 16.784C39.4174 15.73 38.8857 14.7184 38.2645 13.7621C38.0274 13.396 37.9039 12.968 37.9094 12.5319C37.9149 12.0958 38.0492 11.671 38.2954 11.311L38.7025 10.7226C39.0273 10.2427 39.151 9.6545 39.0467 9.08445C38.9425 8.5144 38.6187 8.00802 38.145 7.67418L32.2119 3.5595C31.8447 3.30702 31.4098 3.17132 30.9642 3.17017L30.9864 3.18785Z" fill="url(#paint3_linear_2007_1278)"/>
<path opacity="0.31" d="M22.5181 33.7295C27.906 33.7295 32.2738 29.3617 32.2738 23.9738C32.2738 18.5858 27.906 14.218 22.5181 14.218C17.1301 14.218 12.7623 18.5858 12.7623 23.9738C12.7623 29.3617 17.1301 33.7295 22.5181 33.7295Z" fill="white"/>
<defs>
<linearGradient id="paint0_linear_2007_1278" x1="22.5115" y1="3.19531" x2="22.5115" y2="44.7882" gradientUnits="userSpaceOnUse">
<stop stop-color="#FF0000"/>
<stop offset="1" stop-color="#FFAE28"/>
</linearGradient>
<radialGradient id="paint1_radial_2007_1278" cx="0" cy="0" r="1" gradientUnits="userSpaceOnUse" gradientTransform="translate(21.9164 24.766) scale(22.3829 22.3829)">
<stop stop-color="white" stop-opacity="0"/>
<stop offset="0.37" stop-color="white" stop-opacity="0.01"/>
<stop offset="0.51" stop-color="white" stop-opacity="0.03"/>
<stop offset="0.6" stop-color="white" stop-opacity="0.08"/>
<stop offset="0.68" stop-color="white" stop-opacity="0.15"/>
<stop offset="0.75" stop-color="white" stop-opacity="0.23"/>
<stop offset="0.8" stop-color="white" stop-opacity="0.34"/>
<stop offset="0.86" stop-color="white" stop-opacity="0.47"/>
<stop offset="0.91" stop-color="white" stop-opacity="0.61"/>
<stop offset="0.95" stop-color="white" stop-opacity="0.78"/>
<stop offset="0.99" stop-color="white" stop-opacity="0.96"/>
<stop offset="1" stop-color="white"/>
</radialGradient>
<radialGradient id="paint2_radial_2007_1278" cx="0" cy="0" r="1" gradientUnits="userSpaceOnUse" gradientTransform="translate(28.4246 -2.58107) scale(41.4475 41.4476)">
<stop stop-color="white"/>
<stop offset="0.07" stop-color="white" stop-opacity="0.89"/>
<stop offset="0.27" stop-color="white" stop-opacity="0.63"/>
<stop offset="0.46" stop-color="white" stop-opacity="0.4"/>
<stop offset="0.63" stop-color="white" stop-opacity="0.23"/>
<stop offset="0.78" stop-color="white" stop-opacity="0.1"/>
<stop offset="0.91" stop-color="white" stop-opacity="0.03"/>
<stop offset="1" stop-color="white" stop-opacity="0"/>
</radialGradient>
<linearGradient id="paint3_linear_2007_1278" x1="13.8684" y1="8.56791" x2="33.579" y2="43.6621" gradientUnits="userSpaceOnUse">
<stop stop-color="white" stop-opacity="0"/>
<stop offset="0.03" stop-color="white" stop-opacity="0.12"/>
<stop offset="0.09" stop-color="white" stop-opacity="0.32"/>
<stop offset="0.15" stop-color="white" stop-opacity="0.5"/>
<stop offset="0.22" stop-color="white" stop-opacity="0.66"/>
<stop offset="0.28" stop-color="white" stop-opacity="0.78"/>
<stop offset="0.35" stop-color="white" stop-opacity="0.88"/>
<stop offset="0.42" stop-color="white" stop-opacity="0.95"/>
<stop offset="0.49" stop-color="white" stop-opacity="0.99"/>
<stop offset="0.58" stop-color="white"/>
<stop offset="0.59" stop-color="white" stop-opacity="0.96"/>
<stop offset="0.6" stop-color="white" stop-opacity="0.78"/>
<stop offset="0.62" stop-color="white" stop-opacity="0.61"/>
<stop offset="0.64" stop-color="white" stop-opacity="0.47"/>
<stop offset="0.66" stop-color="white" stop-opacity="0.34"/>
<stop offset="0.69" stop-color="white" stop-opacity="0.23"/>
<stop offset="0.72" stop-color="white" stop-opacity="0.15"/>
<stop offset="0.75" stop-color="white" stop-opacity="0.08"/>
<stop offset="0.79" stop-color="white" stop-opacity="0.03"/>
<stop offset="0.84" stop-color="white" stop-opacity="0.01"/>
<stop offset="1" stop-color="white" stop-opacity="0"/>
</linearGradient>
</defs>
</svg>
