<svg width="50" height="40" viewBox="0 0 50 40" fill="none" xmlns="http://www.w3.org/2000/svg">
<path opacity="0.15" d="M49.2192 16.167C49.2192 7.84466 41.3052 1.09692 31.5421 1.09692C21.7791 1.09692 13.865 7.84466 13.865 16.167C13.865 20.9403 16.4745 25.1903 20.5195 27.9546C19.4384 29.2188 18.2198 30.3485 16.8881 31.3211C16.7189 31.4426 16.5906 31.6162 16.5214 31.8174C16.4521 32.0187 16.4453 32.2373 16.502 32.4427C16.5587 32.6482 16.6759 32.83 16.8372 32.9626C16.9986 33.0952 17.1959 33.1719 17.4014 33.182C35.0357 33.182 49.2192 27.8361 49.2192 16.167Z" fill="#8C8D92"/>
<path d="M0.0332947 18.7831C0.0332947 8.65898 9.65376 0.455078 21.5272 0.455078C33.4007 0.455078 43.0259 8.66886 43.0259 18.7831C43.0259 24.588 39.8602 29.7611 34.9169 33.0979C36.2338 34.6356 37.7171 36.0104 39.3374 37.195C39.5436 37.3431 39.6999 37.5546 39.7841 37.7999C39.8684 38.0451 39.8765 38.3116 39.8072 38.5618C39.7379 38.812 39.5947 39.0334 39.3979 39.1946C39.201 39.3559 38.9604 39.4489 38.71 39.4607C17.2826 39.515 0.0332947 32.9893 0.0332947 18.7831Z" fill="url(#paint0_linear_4030_302)"/>
<path opacity="0.32" d="M0.0332947 18.7831C0.0332947 8.65898 9.65376 0.455078 21.5272 0.455078C33.4007 0.455078 43.0259 8.66886 43.0259 18.7831C43.0259 24.588 39.8602 29.7611 34.9169 33.0979C36.2338 34.6356 37.7171 36.0104 39.3374 37.195C39.5436 37.3431 39.6999 37.5546 39.7841 37.7999C39.8684 38.0451 39.8765 38.3116 39.8072 38.5618C39.7379 38.812 39.5947 39.0334 39.3979 39.1946C39.201 39.3559 38.9604 39.4489 38.71 39.4607C17.2826 39.515 0.0332947 32.9893 0.0332947 18.7831Z" fill="url(#paint1_radial_4030_302)"/>
<path opacity="0.35" d="M0.0332947 18.7831C0.0332947 8.65898 9.65376 0.455078 21.5272 0.455078C33.4007 0.455078 43.0259 8.66886 43.0259 18.7831C43.0259 24.588 39.8602 29.7611 34.9169 33.0979C36.2338 34.6356 37.7171 36.0104 39.3374 37.195C39.5436 37.3431 39.6999 37.5546 39.7841 37.7999C39.8684 38.0451 39.8765 38.3116 39.8072 38.5618C39.7379 38.812 39.5947 39.0334 39.3979 39.1946C39.201 39.3559 38.9604 39.4489 38.71 39.4607C17.2826 39.515 0.0332947 32.9893 0.0332947 18.7831Z" fill="url(#paint2_radial_4030_302)"/>
<path opacity="0.5" d="M21.5272 1.17072C33.0061 1.17072 42.3461 9.06858 42.3461 18.7928C42.3461 24.1584 39.4942 29.1588 34.5462 32.5351L33.8807 32.9892L34.4178 33.6013C35.7665 35.1836 37.2901 36.5952 38.9571 37.8069C39.0488 37.8757 39.1168 37.9733 39.1511 38.0853C39.1853 38.1973 39.1839 38.3178 39.1472 38.4289C39.1194 38.5283 39.0623 38.616 38.9838 38.6798C38.9053 38.7436 38.8095 38.7801 38.7099 38.7843C27.6635 38.7843 18.2712 37.0714 11.6168 33.8234C4.37769 30.304 0.68446 25.2444 0.68446 18.7928C0.68446 9.07351 10.0197 1.17072 21.4987 1.17072M21.4987 0.464844C9.61571 0.464844 0 8.66875 0 18.7928C0 32.9892 17.2541 39.4902 38.6814 39.4902C38.9319 39.4784 39.1725 39.3854 39.3693 39.2241C39.5662 39.0629 39.7093 38.8415 39.7786 38.5913C39.8479 38.3411 39.8399 38.0746 39.7556 37.8294C39.6713 37.5841 39.5151 37.3726 39.3089 37.2245C37.6885 36.0399 36.2052 34.6652 34.8884 33.1274C39.8317 29.7709 42.9973 24.5978 42.9973 18.8126C42.9973 8.68849 33.3721 0.484589 21.4987 0.484589V0.464844Z" fill="url(#paint3_linear_4030_302)"/>
<path opacity="0.31" d="M13.9316 20.9454C14.9239 20.9454 15.7283 20.11 15.7283 19.0795C15.7283 18.049 14.9239 17.2136 13.9316 17.2136C12.9393 17.2136 12.1349 18.049 12.1349 19.0795C12.1349 20.11 12.9393 20.9454 13.9316 20.9454Z" fill="white"/>
<path opacity="0.31" d="M21.5272 20.9454C22.5195 20.9454 23.3239 20.11 23.3239 19.0795C23.3239 18.049 22.5195 17.2136 21.5272 17.2136C20.5349 17.2136 19.7305 18.049 19.7305 19.0795C19.7305 20.11 20.5349 20.9454 21.5272 20.9454Z" fill="white"/>
<path opacity="0.31" d="M29.1275 20.9454C30.1198 20.9454 30.9242 20.11 30.9242 19.0795C30.9242 18.049 30.1198 17.2136 29.1275 17.2136C28.1353 17.2136 27.3308 18.049 27.3308 19.0795C27.3308 20.11 28.1353 20.9454 29.1275 20.9454Z" fill="white"/>
<defs>
<linearGradient id="paint0_linear_4030_302" x1="21.5296" y1="0.455078" x2="21.5296" y2="39.461" gradientUnits="userSpaceOnUse">
<stop stop-color="#FF0000"/>
<stop offset="1" stop-color="#FFAE28"/>
</linearGradient>
<radialGradient id="paint1_radial_4030_302" cx="0" cy="0" r="1" gradientUnits="userSpaceOnUse" gradientTransform="translate(22.6822 16.4285) scale(27.6968 28.763)">
<stop stop-color="white"/>
<stop offset="0.07" stop-color="white" stop-opacity="0.89"/>
<stop offset="0.27" stop-color="white" stop-opacity="0.63"/>
<stop offset="0.46" stop-color="white" stop-opacity="0.4"/>
<stop offset="0.63" stop-color="white" stop-opacity="0.23"/>
<stop offset="0.78" stop-color="white" stop-opacity="0.1"/>
<stop offset="0.91" stop-color="white" stop-opacity="0.03"/>
<stop offset="1" stop-color="white" stop-opacity="0"/>
</radialGradient>
<radialGradient id="paint2_radial_4030_302" cx="0" cy="0" r="1" gradientUnits="userSpaceOnUse" gradientTransform="translate(21.1422 20.8957) scale(21.3846 22.2078)">
<stop stop-color="white" stop-opacity="0"/>
<stop offset="0.37" stop-color="white" stop-opacity="0.01"/>
<stop offset="0.51" stop-color="white" stop-opacity="0.03"/>
<stop offset="0.6" stop-color="white" stop-opacity="0.08"/>
<stop offset="0.68" stop-color="white" stop-opacity="0.15"/>
<stop offset="0.75" stop-color="white" stop-opacity="0.23"/>
<stop offset="0.8" stop-color="white" stop-opacity="0.34"/>
<stop offset="0.86" stop-color="white" stop-opacity="0.47"/>
<stop offset="0.91" stop-color="white" stop-opacity="0.61"/>
<stop offset="0.95" stop-color="white" stop-opacity="0.78"/>
<stop offset="0.99" stop-color="white" stop-opacity="0.96"/>
<stop offset="1" stop-color="white"/>
</radialGradient>
<linearGradient id="paint3_linear_4030_302" x1="13.6749" y1="6.15624" x2="30.4731" y2="31.1166" gradientUnits="userSpaceOnUse">
<stop stop-color="white" stop-opacity="0"/>
<stop offset="0.03" stop-color="white" stop-opacity="0.12"/>
<stop offset="0.09" stop-color="white" stop-opacity="0.32"/>
<stop offset="0.15" stop-color="white" stop-opacity="0.5"/>
<stop offset="0.22" stop-color="white" stop-opacity="0.66"/>
<stop offset="0.28" stop-color="white" stop-opacity="0.78"/>
<stop offset="0.35" stop-color="white" stop-opacity="0.88"/>
<stop offset="0.42" stop-color="white" stop-opacity="0.95"/>
<stop offset="0.49" stop-color="white" stop-opacity="0.99"/>
<stop offset="0.58" stop-color="white"/>
<stop offset="0.59" stop-color="white" stop-opacity="0.96"/>
<stop offset="0.6" stop-color="white" stop-opacity="0.78"/>
<stop offset="0.62" stop-color="white" stop-opacity="0.61"/>
<stop offset="0.64" stop-color="white" stop-opacity="0.47"/>
<stop offset="0.66" stop-color="white" stop-opacity="0.34"/>
<stop offset="0.69" stop-color="white" stop-opacity="0.23"/>
<stop offset="0.72" stop-color="white" stop-opacity="0.15"/>
<stop offset="0.75" stop-color="white" stop-opacity="0.08"/>
<stop offset="0.79" stop-color="white" stop-opacity="0.03"/>
<stop offset="0.84" stop-color="white" stop-opacity="0.01"/>
<stop offset="1" stop-color="white" stop-opacity="0"/>
</linearGradient>
</defs>
</svg>
