<svg width="50" height="40" viewBox="0 0 50 40" fill="none" xmlns="http://www.w3.org/2000/svg">
<path opacity="0.15" d="M45.0599 6.26934H28.6894V4.81358C28.6881 3.79447 28.2493 2.81753 27.4694 2.09735C26.6895 1.37717 25.6323 0.972655 24.5301 0.972656H9.62127C8.51904 0.972655 7.46186 1.37717 6.68199 2.09735C5.90212 2.81753 5.4633 3.79447 5.46194 4.81358V29.8982C5.46194 30.9181 5.90016 31.8963 6.68018 32.6175C7.4602 33.3387 8.51815 33.7438 9.62127 33.7438H45.0599C45.6061 33.7438 46.147 33.6444 46.6516 33.4511C47.1563 33.2578 47.6148 32.9746 48.001 32.6175C48.3872 32.2604 48.6936 31.8364 48.9026 31.3698C49.1117 30.9033 49.2192 30.4032 49.2192 29.8982V10.115C49.2192 9.60999 49.1117 9.10992 48.9026 8.64334C48.6936 8.17676 48.3872 7.75282 48.001 7.39571C47.6148 7.03861 47.1563 6.75534 46.6516 6.56208C46.147 6.36882 45.6061 6.26934 45.0599 6.26934Z" fill="#8C8D92"/>
<path d="M39.5775 12.5335H23.2069V11.0777C23.2056 10.0586 22.7668 9.08169 21.9869 8.36151C21.207 7.64133 20.1499 7.23682 19.0477 7.23682H4.15929C3.05707 7.23682 1.99992 7.64133 1.22005 8.36151C0.440175 9.08169 0.0013591 10.0586 0 11.0777V36.1623C0 37.1823 0.438212 38.1604 1.21823 38.8816C1.99825 39.6028 3.05618 40.008 4.15929 40.008H39.598C40.7011 40.008 41.759 39.6028 42.539 38.8816C43.3191 38.1604 43.7573 37.1823 43.7573 36.1623V16.3792C43.7573 15.8726 43.649 15.3709 43.4387 14.9031C43.2284 14.4353 42.9202 14.0105 42.5318 13.6532C42.1434 13.2958 41.6824 13.0129 41.1754 12.8208C40.6684 12.6286 40.1254 12.531 39.5775 12.5335Z" fill="url(#paint0_linear_4030_191)"/>
<path opacity="0.6" d="M39.5775 12.5335H23.2069V11.0777C23.2056 10.0586 22.7668 9.08169 21.9869 8.36151C21.207 7.64133 20.1499 7.23682 19.0477 7.23682H4.15929C3.05707 7.23682 1.99992 7.64133 1.22005 8.36151C0.440175 9.08169 0.0013591 10.0586 0 11.0777V36.1623C0 37.1823 0.438212 38.1604 1.21823 38.8816C1.99825 39.6028 3.05618 40.008 4.15929 40.008H39.598C40.7011 40.008 41.759 39.6028 42.539 38.8816C43.3191 38.1604 43.7573 37.1823 43.7573 36.1623V16.3792C43.7573 15.8726 43.649 15.3709 43.4387 14.9031C43.2284 14.4353 42.9202 14.0105 42.5318 13.6532C42.1434 13.2958 41.6824 13.0129 41.1754 12.8208C40.6684 12.6286 40.1254 12.531 39.5775 12.5335Z" fill="url(#paint1_radial_4030_191)"/>
<path opacity="0.31" d="M19.0323 7.23672H4.15929C3.05707 7.23671 1.99992 7.64123 1.22005 8.36141C0.440175 9.08159 0.0013591 10.0585 0 11.0776V17.0382C0.00542328 16.0216 0.44603 15.0483 1.22546 14.3312C2.0049 13.614 3.05972 13.2115 4.15929 13.2115H23.2275V11.0776C23.2268 10.5702 23.1175 10.0679 22.906 9.59972C22.6944 9.13152 22.3847 8.70665 21.9947 8.34961C21.6048 7.99258 21.1422 7.71043 20.6338 7.51942C20.1253 7.32842 19.581 7.23234 19.0323 7.23672Z" fill="white"/>
<path opacity="0.32" d="M39.5775 12.5335H23.2069V11.0777C23.2056 10.0586 22.7668 9.08169 21.9869 8.36151C21.207 7.64133 20.1499 7.23682 19.0477 7.23682H4.15929C3.05707 7.23682 1.99992 7.64133 1.22005 8.36151C0.440175 9.08169 0.0013591 10.0586 0 11.0777V36.1623C0 37.1823 0.438212 38.1604 1.21823 38.8816C1.99825 39.6028 3.05618 40.008 4.15929 40.008H39.598C40.7011 40.008 41.759 39.6028 42.539 38.8816C43.3191 38.1604 43.7573 37.1823 43.7573 36.1623V16.3792C43.7573 15.8726 43.649 15.3709 43.4387 14.9031C43.2284 14.4353 42.9202 14.0105 42.5318 13.6532C42.1434 13.2958 41.6824 13.0129 41.1754 12.8208C40.6684 12.6286 40.1254 12.531 39.5775 12.5335Z" fill="url(#paint2_radial_4030_191)"/>
<path opacity="0.5" d="M19.0323 7.90068C19.9436 7.90194 20.8174 8.23691 21.4623 8.83232C22.1072 9.42773 22.4708 10.2351 22.4736 11.0777V13.2116H39.5621C40.4744 13.2129 41.3489 13.5485 41.9939 14.1449C42.639 14.7413 43.002 15.5499 43.0034 16.3934V36.1623C43.002 37.0058 42.639 37.8144 41.9939 38.4108C41.3489 39.0072 40.4744 39.3429 39.5621 39.3441H4.15929C3.24702 39.3429 2.3725 39.0072 1.72743 38.4108C1.08236 37.8144 0.719343 37.0058 0.717986 36.1623V11.0777C0.720698 10.2351 1.08432 9.42773 1.72925 8.83232C2.37417 8.23691 3.24791 7.90194 4.15929 7.90068H19.0323ZM19.0323 7.23682H4.15929C3.05707 7.23682 1.99992 7.64133 1.22005 8.36151C0.440175 9.08169 0.0013591 10.0586 0 11.0777V36.1623C0 37.1823 0.438212 38.1604 1.21823 38.8816C1.99825 39.6028 3.05618 40.008 4.15929 40.008H39.598C40.7011 40.008 41.759 39.6028 42.539 38.8816C43.3191 38.1604 43.7573 37.1823 43.7573 36.1623V16.3792C43.7573 15.8742 43.6497 15.3741 43.4407 14.9075C43.2316 14.4409 42.9253 14.017 42.539 13.6599C42.1528 13.3028 41.6943 13.0195 41.1897 12.8262C40.685 12.633 40.1442 12.5335 39.598 12.5335H23.2069V11.0777C23.2056 10.0586 22.7668 9.08169 21.9869 8.36151C21.207 7.64133 20.1499 7.23682 19.0477 7.23682H19.0323Z" fill="url(#paint3_linear_4030_191)"/>
<path opacity="0.31" d="M37.8594 26.3421L32.9872 23.6202L28.6586 26.3421V12.5337H37.8594V26.3421Z" fill="white"/>
<defs>
<linearGradient id="paint0_linear_4030_191" x1="21.8786" y1="7.23682" x2="21.8786" y2="40.008" gradientUnits="userSpaceOnUse">
<stop stop-color="#FF0000"/>
<stop offset="1" stop-color="#FFAE28"/>
</linearGradient>
<radialGradient id="paint1_radial_4030_191" cx="0" cy="0" r="1" gradientUnits="userSpaceOnUse" gradientTransform="translate(21.8581 23.8619) scale(29.4639 27.2421)">
<stop stop-color="white" stop-opacity="0"/>
<stop offset="0.37" stop-color="white" stop-opacity="0.01"/>
<stop offset="0.51" stop-color="white" stop-opacity="0.03"/>
<stop offset="0.6" stop-color="white" stop-opacity="0.08"/>
<stop offset="0.68" stop-color="white" stop-opacity="0.15"/>
<stop offset="0.75" stop-color="white" stop-opacity="0.23"/>
<stop offset="0.8" stop-color="white" stop-opacity="0.34"/>
<stop offset="0.86" stop-color="white" stop-opacity="0.47"/>
<stop offset="0.91" stop-color="white" stop-opacity="0.61"/>
<stop offset="0.95" stop-color="white" stop-opacity="0.78"/>
<stop offset="0.99" stop-color="white" stop-opacity="0.96"/>
<stop offset="1" stop-color="white"/>
</radialGradient>
<radialGradient id="paint2_radial_4030_191" cx="0" cy="0" r="1" gradientUnits="userSpaceOnUse" gradientTransform="translate(23.9096 6.79108) scale(27.1201 25.0751)">
<stop stop-color="white"/>
<stop offset="0.07" stop-color="white" stop-opacity="0.89"/>
<stop offset="0.27" stop-color="white" stop-opacity="0.63"/>
<stop offset="0.46" stop-color="white" stop-opacity="0.4"/>
<stop offset="0.63" stop-color="white" stop-opacity="0.23"/>
<stop offset="0.78" stop-color="white" stop-opacity="0.1"/>
<stop offset="0.91" stop-color="white" stop-opacity="0.03"/>
<stop offset="1" stop-color="white" stop-opacity="0"/>
</radialGradient>
<linearGradient id="paint3_linear_4030_191" x1="3.68747" y1="12.1115" x2="34.0856" y2="39.8175" gradientUnits="userSpaceOnUse">
<stop stop-color="white" stop-opacity="0"/>
<stop offset="0.03" stop-color="white" stop-opacity="0.12"/>
<stop offset="0.09" stop-color="white" stop-opacity="0.32"/>
<stop offset="0.15" stop-color="white" stop-opacity="0.5"/>
<stop offset="0.22" stop-color="white" stop-opacity="0.66"/>
<stop offset="0.28" stop-color="white" stop-opacity="0.78"/>
<stop offset="0.35" stop-color="white" stop-opacity="0.88"/>
<stop offset="0.42" stop-color="white" stop-opacity="0.95"/>
<stop offset="0.49" stop-color="white" stop-opacity="0.99"/>
<stop offset="0.58" stop-color="white"/>
<stop offset="0.59" stop-color="white" stop-opacity="0.96"/>
<stop offset="0.6" stop-color="white" stop-opacity="0.78"/>
<stop offset="0.62" stop-color="white" stop-opacity="0.61"/>
<stop offset="0.64" stop-color="white" stop-opacity="0.47"/>
<stop offset="0.66" stop-color="white" stop-opacity="0.34"/>
<stop offset="0.69" stop-color="white" stop-opacity="0.23"/>
<stop offset="0.72" stop-color="white" stop-opacity="0.15"/>
<stop offset="0.75" stop-color="white" stop-opacity="0.08"/>
<stop offset="0.79" stop-color="white" stop-opacity="0.03"/>
<stop offset="0.84" stop-color="white" stop-opacity="0.01"/>
<stop offset="1" stop-color="white" stop-opacity="0"/>
</linearGradient>
</defs>
</svg>
