<svg width="53" height="34" viewBox="0 0 53 34" fill="none" xmlns="http://www.w3.org/2000/svg">
<path opacity="0.15" d="M45.9629 23.6497C47.3192 23.6618 48.6411 23.2226 49.7207 22.4014C50.8003 21.5801 51.5762 20.4234 51.9266 19.113C52.3098 17.6542 52.3167 16.1221 51.9469 14.6599C51.5771 13.1977 50.8426 11.8532 49.812 10.752C48.7814 9.65075 47.4884 8.82882 46.0539 8.36303C44.6194 7.89724 43.0902 7.80279 41.6093 8.08851C40.9369 5.84125 39.5019 3.89887 37.5513 2.59604C35.6007 1.2932 33.2568 0.711518 30.9234 0.951215C28.59 1.19091 26.4133 2.23697 24.7683 3.90916C23.1233 5.58135 22.1131 7.77493 21.9117 10.1119C21.7541 10.1119 21.5965 10.1119 21.4346 10.1119C20.5358 10.1129 19.6461 10.2928 18.8175 10.6411C17.9888 10.9895 17.2378 11.4992 16.6081 12.1408C15.9785 12.7823 15.4829 13.5427 15.1502 14.3777C14.8174 15.2127 14.6542 16.1056 14.67 17.0044C14.7168 18.7935 15.4628 20.4931 16.7481 21.7386C18.0334 22.9841 19.7557 23.6763 21.5454 23.6668L45.9629 23.6497Z" fill="#8C8D92"/>
<path d="M39.9096 33.1534C41.6238 33.1631 43.2928 32.6038 44.6549 31.5631C46.0171 30.5223 46.9955 29.0591 47.4367 27.4026C47.922 25.5541 47.9308 23.6127 47.4622 21.7598C46.9936 19.9069 46.0629 18.2031 44.7571 16.8076C43.4513 15.412 41.813 14.3702 39.9953 13.7796C38.1777 13.189 36.24 13.0689 34.3633 13.4303C33.5053 10.5892 31.6853 8.1352 29.2155 6.48954C26.7457 4.84388 23.7801 4.10916 20.8276 4.41146C17.8752 4.71375 15.12 6.03422 13.035 8.14625C10.9499 10.2583 9.66492 13.0302 9.40057 15.9862C9.1961 15.9862 8.99589 15.9607 8.79141 15.9607C7.65226 15.9622 6.52479 16.1905 5.47475 16.6321C4.4247 17.0738 3.47309 17.7201 2.67535 18.5333C1.87761 19.3465 1.24972 20.3104 0.828281 21.3687C0.406838 22.427 0.200255 23.5587 0.220608 24.6976C0.27963 26.9652 1.22464 29.1193 2.85306 30.6984C4.48148 32.2774 6.66372 33.1557 8.932 33.1449L39.9096 33.1534Z" fill="url(#paint0_radial_2007_1281)"/>
<path opacity="0.32" d="M39.9096 33.1534C41.6238 33.1631 43.2928 32.6038 44.6549 31.5631C46.0171 30.5223 46.9955 29.0591 47.4367 27.4026C47.922 25.5541 47.9308 23.6127 47.4622 21.7598C46.9936 19.9069 46.0629 18.2031 44.7571 16.8076C43.4513 15.412 41.813 14.3702 39.9953 13.7796C38.1777 13.189 36.24 13.0689 34.3633 13.4303C33.5053 10.5892 31.6853 8.1352 29.2155 6.48954C26.7457 4.84388 23.7801 4.10916 20.8276 4.41146C17.8752 4.71375 15.12 6.03422 13.035 8.14625C10.9499 10.2583 9.66492 13.0302 9.40057 15.9862C9.1961 15.9862 8.99589 15.9607 8.79141 15.9607C7.65226 15.9622 6.52479 16.1905 5.47475 16.6321C4.4247 17.0738 3.47309 17.7201 2.67535 18.5333C1.87761 19.3465 1.24972 20.3104 0.828281 21.3687C0.406838 22.427 0.200255 23.5587 0.220608 24.6976C0.27963 26.9652 1.22464 29.1193 2.85306 30.6984C4.48148 32.2774 6.66372 33.1557 8.932 33.1449L39.9096 33.1534Z" fill="url(#paint1_radial_2007_1281)"/>
<path opacity="0.35" d="M39.9096 33.1534C41.6238 33.1631 43.2928 32.6038 44.6549 31.5631C46.0171 30.5223 46.9955 29.0591 47.4367 27.4026C47.922 25.5541 47.9308 23.6127 47.4622 21.7598C46.9936 19.9069 46.0629 18.2031 44.7571 16.8076C43.4513 15.412 41.813 14.3702 39.9953 13.7796C38.1777 13.189 36.24 13.0689 34.3633 13.4303C33.5053 10.5892 31.6853 8.1352 29.2155 6.48954C26.7457 4.84388 23.7801 4.10916 20.8276 4.41146C17.8752 4.71375 15.12 6.03422 13.035 8.14625C10.9499 10.2583 9.66492 13.0302 9.40057 15.9862C9.1961 15.9862 8.99589 15.9607 8.79141 15.9607C7.65226 15.9622 6.52479 16.1905 5.47475 16.6321C4.4247 17.0738 3.47309 17.7201 2.67535 18.5333C1.87761 19.3465 1.24972 20.3104 0.828281 21.3687C0.406838 22.427 0.200255 23.5587 0.220608 24.6976C0.27963 26.9652 1.22464 29.1193 2.85306 30.6984C4.48148 32.2774 6.66372 33.1557 8.932 33.1449L39.9096 33.1534Z" fill="url(#paint2_radial_2007_1281)"/>
<path opacity="0.5" d="M22.1247 4.91908C24.7408 4.93421 27.2836 5.7846 29.3824 7.34628C31.4813 8.90795 33.0264 11.0992 33.7925 13.6006L33.9458 14.1161L34.474 14.0139C36.251 13.6788 38.0839 13.7978 39.8027 14.36C41.5214 14.9222 43.0703 15.9093 44.3058 17.2298C45.5413 18.5502 46.4234 20.1613 46.8702 21.9136C47.317 23.6659 47.3141 25.5026 46.8617 27.2535C46.4554 28.7834 45.5518 30.1348 44.2932 31.0949C43.0346 32.055 41.4925 32.5694 39.9096 32.557H8.93201C6.82541 32.5578 4.80146 31.7374 3.29015 30.2698C1.77885 28.8022 0.89928 26.8033 0.8383 24.6975C0.819075 23.6376 1.01104 22.5844 1.40302 21.5994C1.795 20.6145 2.37914 19.7173 3.12139 18.9604C3.86364 18.2035 4.74915 17.6019 5.72628 17.1907C6.70341 16.7796 7.7526 16.567 8.81272 16.5655C8.97885 16.5655 9.16206 16.5655 9.37931 16.5868L9.96291 16.6294L9.99697 16.0288C10.265 12.9943 11.6585 10.1699 13.9036 8.11089C16.1486 6.05188 19.0827 4.90725 22.129 4.90205M22.129 4.30566C18.9326 4.30749 15.853 5.50705 13.4976 7.66772C11.1421 9.8284 9.68186 12.7933 9.40484 15.9776C9.20037 15.9776 9.00016 15.9521 8.79569 15.9521C7.65653 15.9536 6.52907 16.1818 5.47902 16.6235C4.42897 17.0652 3.47733 17.7115 2.6796 18.5247C1.88186 19.3379 1.25397 20.3017 0.832528 21.3601C0.411085 22.4184 0.204528 23.55 0.224881 24.689C0.283902 26.9566 1.22891 29.1107 2.85733 30.6898C4.48576 32.2688 6.668 33.1471 8.93627 33.1363H39.9139C41.6281 33.146 43.2971 32.5866 44.6592 31.5459C46.0214 30.5052 46.9998 29.042 47.441 27.3855C47.9263 25.5369 47.9351 23.5955 47.4664 21.7427C46.9978 19.8898 46.0671 18.186 44.7613 16.7904C43.4556 15.3949 41.8173 14.3531 39.9996 13.7625C38.1819 13.1719 36.2442 13.0517 34.3675 13.4132C33.5779 10.7811 31.9609 8.47354 29.7563 6.83295C27.5517 5.19237 24.877 4.30611 22.129 4.30566Z" fill="url(#paint3_linear_2007_1281)"/>
<path opacity="0.31" d="M24.4165 29.0811L29.7668 25.0129C29.8399 24.94 29.8877 24.8458 29.9036 24.7438C29.9194 24.6418 29.9024 24.5375 29.8549 24.4459C29.8074 24.3543 29.732 24.2801 29.6396 24.2343C29.5472 24.1884 29.4425 24.1732 29.3409 24.1908H28.9745V15.0108C28.9658 14.8725 28.9025 14.7433 28.7988 14.6515C28.695 14.5597 28.559 14.5128 28.4207 14.5209H19.901C19.7627 14.5128 19.6268 14.5597 19.523 14.6515C19.4192 14.7433 19.356 14.8725 19.3472 15.0108V24.1908H18.6614C18.5597 24.1732 18.4551 24.1884 18.3627 24.2343C18.2702 24.2801 18.1949 24.3543 18.1474 24.4459C18.0999 24.5375 18.0829 24.6418 18.0987 24.7438C18.1145 24.8458 18.1624 24.94 18.2354 25.0129L23.5858 29.0811C23.6981 29.1871 23.8467 29.2462 24.0011 29.2462C24.1556 29.2462 24.3042 29.1871 24.4165 29.0811Z" fill="white"/>
<defs>
<radialGradient id="paint0_radial_2007_1281" cx="0" cy="0" r="1" gradientUnits="userSpaceOnUse" gradientTransform="translate(21.6849 28.6699) scale(25.7508 25.7508)">
<stop stop-color="#6800FF"/>
<stop offset="0.33" stop-color="#6601FD"/>
<stop offset="0.52" stop-color="#5F04F4"/>
<stop offset="0.67" stop-color="#540AE6"/>
<stop offset="0.81" stop-color="#4412D3"/>
<stop offset="0.93" stop-color="#2F1CB9"/>
<stop offset="1" stop-color="#1F24A6"/>
</radialGradient>
<radialGradient id="paint1_radial_2007_1281" cx="0" cy="0" r="1" gradientUnits="userSpaceOnUse" gradientTransform="translate(20.4964 4.2163) scale(25.3961 25.3961)">
<stop stop-color="white"/>
<stop offset="0.07" stop-color="white" stop-opacity="0.89"/>
<stop offset="0.27" stop-color="white" stop-opacity="0.63"/>
<stop offset="0.46" stop-color="white" stop-opacity="0.4"/>
<stop offset="0.63" stop-color="white" stop-opacity="0.23"/>
<stop offset="0.78" stop-color="white" stop-opacity="0.1"/>
<stop offset="0.91" stop-color="white" stop-opacity="0.03"/>
<stop offset="1" stop-color="white" stop-opacity="0"/>
</radialGradient>
<radialGradient id="paint2_radial_2007_1281" cx="0" cy="0" r="1" gradientUnits="userSpaceOnUse" gradientTransform="translate(23.4758 23.5363) rotate(-4.57392) scale(23.1151 19.4157)">
<stop stop-color="white" stop-opacity="0"/>
<stop offset="0.37" stop-color="white" stop-opacity="0.01"/>
<stop offset="0.51" stop-color="white" stop-opacity="0.03"/>
<stop offset="0.6" stop-color="white" stop-opacity="0.08"/>
<stop offset="0.68" stop-color="white" stop-opacity="0.15"/>
<stop offset="0.75" stop-color="white" stop-opacity="0.23"/>
<stop offset="0.8" stop-color="white" stop-opacity="0.34"/>
<stop offset="0.86" stop-color="white" stop-opacity="0.47"/>
<stop offset="0.91" stop-color="white" stop-opacity="0.61"/>
<stop offset="0.95" stop-color="white" stop-opacity="0.78"/>
<stop offset="0.99" stop-color="white" stop-opacity="0.96"/>
<stop offset="1" stop-color="white"/>
</radialGradient>
<linearGradient id="paint3_linear_2007_1281" x1="15.0065" y1="8.99149" x2="33.3793" y2="39.9648" gradientUnits="userSpaceOnUse">
<stop stop-color="white" stop-opacity="0"/>
<stop offset="0.03" stop-color="white" stop-opacity="0.12"/>
<stop offset="0.09" stop-color="white" stop-opacity="0.32"/>
<stop offset="0.15" stop-color="white" stop-opacity="0.5"/>
<stop offset="0.22" stop-color="white" stop-opacity="0.66"/>
<stop offset="0.28" stop-color="white" stop-opacity="0.78"/>
<stop offset="0.35" stop-color="white" stop-opacity="0.88"/>
<stop offset="0.42" stop-color="white" stop-opacity="0.95"/>
<stop offset="0.49" stop-color="white" stop-opacity="0.99"/>
<stop offset="0.58" stop-color="white"/>
<stop offset="0.59" stop-color="white" stop-opacity="0.96"/>
<stop offset="0.6" stop-color="white" stop-opacity="0.78"/>
<stop offset="0.62" stop-color="white" stop-opacity="0.61"/>
<stop offset="0.64" stop-color="white" stop-opacity="0.47"/>
<stop offset="0.66" stop-color="white" stop-opacity="0.34"/>
<stop offset="0.69" stop-color="white" stop-opacity="0.23"/>
<stop offset="0.72" stop-color="white" stop-opacity="0.15"/>
<stop offset="0.75" stop-color="white" stop-opacity="0.08"/>
<stop offset="0.79" stop-color="white" stop-opacity="0.03"/>
<stop offset="0.84" stop-color="white" stop-opacity="0.01"/>
<stop offset="1" stop-color="white" stop-opacity="0"/>
</linearGradient>
</defs>
</svg>
